<svg xmlns="http://www.w3.org/2000/svg" xmlns:xlink="http://www.w3.org/1999/xlink" width="500" zoomAndPan="magnify" viewBox="0 0 375 374.999991" height="500" preserveAspectRatio="xMidYMid meet" version="1.0"><defs><g/></defs><g fill="rgb(98.039246%, 100%, 0%)" fill-opacity="1"><g transform="translate(131.662216, 237.502907)"><g><path d="M 8.953125 -2.265625 C 7.953125 -2.015625 7.425781 -2.410156 7.375 -3.453125 L -5.96875 -108.03125 C -6.007812 -109.070312 -5.582031 -109.707031 -4.6875 -109.9375 L 17.53125 -115.578125 C 24.195312 -117.265625 29.953125 -116.578125 34.796875 -113.515625 C 39.640625 -110.453125 42.957031 -105.390625 44.75 -98.328125 C 45 -97.335938 45.332031 -95.628906 45.75 -93.203125 L 52.03125 -42.71875 C 53.175781 -34.007812 51.847656 -26.5 48.046875 -20.1875 C 44.253906 -13.882812 38.679688 -9.800781 31.328125 -7.9375 Z M 16.453125 -14.640625 C 16.554688 -14.242188 16.800781 -14.097656 17.1875 -14.203125 L 29.84375 -17.5625 C 34.125 -18.644531 37.332031 -21.226562 39.46875 -25.3125 C 41.601562 -29.40625 42.320312 -34.484375 41.625 -40.546875 L 35.25 -90.0625 C 34.957031 -92.101562 34.710938 -93.519531 34.515625 -94.3125 C 33.328125 -98.988281 31.335938 -102.347656 28.546875 -104.390625 C 25.753906 -106.429688 22.460938 -106.96875 18.671875 -106 L 6 -102.796875 C 5.8125 -102.742188 5.648438 -102.648438 5.515625 -102.515625 C 5.390625 -102.378906 5.351562 -102.210938 5.40625 -102.015625 Z M 16.453125 -14.640625 "/></g></g></g><g fill="rgb(98.039246%, 100%, 0%)" fill-opacity="1"><g transform="translate(198.932371, 220.448874)"><g><path d="M 29.828125 -6.28125 C 23.160156 -4.59375 17.375 -5.191406 12.46875 -8.078125 C 7.5625 -10.960938 4.265625 -15.738281 2.578125 -22.40625 C 2.367188 -23.195312 2.117188 -24.613281 1.828125 -26.65625 L -5.34375 -83.734375 C -6.320312 -91.742188 -4.890625 -98.71875 -1.046875 -104.65625 C 2.785156 -110.601562 8.4375 -114.519531 15.90625 -116.40625 C 22.65625 -118.125 28.484375 -117.539062 33.390625 -114.65625 C 38.304688 -111.78125 41.609375 -107.007812 43.296875 -100.34375 C 43.515625 -99.457031 43.753906 -98.09375 44.015625 -96.25 L 44.21875 -93.59375 C 44.320312 -93.195312 44.257812 -92.8125 44.03125 -92.4375 C 43.8125 -92.0625 43.5 -91.820312 43.09375 -91.71875 L 35.609375 -89.34375 C 34.722656 -89.113281 34.148438 -89.5 33.890625 -90.5 L 33.390625 -94.359375 C 33.335938 -94.972656 33.160156 -95.875 32.859375 -97.0625 C 31.847656 -101.039062 29.925781 -103.914062 27.09375 -105.6875 C 24.269531 -107.457031 20.921875 -107.851562 17.046875 -106.875 C 12.765625 -105.789062 9.492188 -103.425781 7.234375 -99.78125 C 4.984375 -96.132812 4.15625 -91.90625 4.75 -87.09375 L 12.171875 -28.328125 C 12.234375 -27.710938 12.390625 -26.90625 12.640625 -25.90625 C 13.648438 -21.925781 15.582031 -19.003906 18.4375 -17.140625 C 21.289062 -15.273438 24.65625 -14.832031 28.53125 -15.8125 C 32.90625 -16.925781 36.21875 -19.300781 38.46875 -22.9375 C 40.726562 -26.570312 41.507812 -30.789062 40.8125 -35.59375 L 40.328125 -39.421875 C 40.328125 -39.847656 40.4375 -40.25 40.65625 -40.625 C 40.875 -41 41.179688 -41.238281 41.578125 -41.34375 L 49.171875 -42.78125 C 49.660156 -42.90625 50.066406 -42.847656 50.390625 -42.609375 C 50.710938 -42.378906 50.875 -42.046875 50.875 -41.609375 L 51.1875 -39.171875 C 52.1875 -31.054688 50.742188 -24.019531 46.859375 -18.0625 C 42.972656 -12.101562 37.296875 -8.175781 29.828125 -6.28125 Z M 29.828125 -6.28125 "/></g></g></g><g fill="rgb(0%, 0%, 0%)" fill-opacity="1"><g transform="translate(122.596766, 243.09861)"><g><path d="M 8.953125 -2.265625 C 7.953125 -2.015625 7.425781 -2.410156 7.375 -3.453125 L -5.96875 -108.03125 C -6.007812 -109.070312 -5.582031 -109.707031 -4.6875 -109.9375 L 17.53125 -115.578125 C 24.195312 -117.265625 29.953125 -116.578125 34.796875 -113.515625 C 39.640625 -110.453125 42.957031 -105.390625 44.75 -98.328125 C 45 -97.335938 45.332031 -95.628906 45.75 -93.203125 L 52.03125 -42.71875 C 53.175781 -34.007812 51.847656 -26.5 48.046875 -20.1875 C 44.253906 -13.882812 38.679688 -9.800781 31.328125 -7.9375 Z M 16.453125 -14.640625 C 16.554688 -14.242188 16.800781 -14.097656 17.1875 -14.203125 L 29.84375 -17.5625 C 34.125 -18.644531 37.332031 -21.226562 39.46875 -25.3125 C 41.601562 -29.40625 42.320312 -34.484375 41.625 -40.546875 L 35.25 -90.0625 C 34.957031 -92.101562 34.710938 -93.519531 34.515625 -94.3125 C 33.328125 -98.988281 31.335938 -102.347656 28.546875 -104.390625 C 25.753906 -106.429688 22.460938 -106.96875 18.671875 -106 L 6 -102.796875 C 5.8125 -102.742188 5.648438 -102.648438 5.515625 -102.515625 C 5.390625 -102.378906 5.351562 -102.210938 5.40625 -102.015625 Z M 16.453125 -14.640625 "/></g></g></g><g fill="rgb(0%, 0%, 0%)" fill-opacity="1"><g transform="translate(189.866921, 226.044577)"><g><path d="M 29.828125 -6.28125 C 23.160156 -4.59375 17.375 -5.191406 12.46875 -8.078125 C 7.5625 -10.960938 4.265625 -15.738281 2.578125 -22.40625 C 2.367188 -23.195312 2.117188 -24.613281 1.828125 -26.65625 L -5.34375 -83.734375 C -6.320312 -91.742188 -4.890625 -98.71875 -1.046875 -104.65625 C 2.785156 -110.601562 8.4375 -114.519531 15.90625 -116.40625 C 22.65625 -118.125 28.484375 -117.539062 33.390625 -114.65625 C 38.304688 -111.78125 41.609375 -107.007812 43.296875 -100.34375 C 43.515625 -99.457031 43.753906 -98.09375 44.015625 -96.25 L 44.21875 -93.59375 C 44.320312 -93.195312 44.257812 -92.8125 44.03125 -92.4375 C 43.8125 -92.0625 43.5 -91.820312 43.09375 -91.71875 L 35.609375 -89.34375 C 34.722656 -89.113281 34.148438 -89.5 33.890625 -90.5 L 33.390625 -94.359375 C 33.335938 -94.972656 33.160156 -95.875 32.859375 -97.0625 C 31.847656 -101.039062 29.925781 -103.914062 27.09375 -105.6875 C 24.269531 -107.457031 20.921875 -107.851562 17.046875 -106.875 C 12.765625 -105.789062 9.492188 -103.425781 7.234375 -99.78125 C 4.984375 -96.132812 4.15625 -91.90625 4.75 -87.09375 L 12.171875 -28.328125 C 12.234375 -27.710938 12.390625 -26.90625 12.640625 -25.90625 C 13.648438 -21.925781 15.582031 -19.003906 18.4375 -17.140625 C 21.289062 -15.273438 24.65625 -14.832031 28.53125 -15.8125 C 32.90625 -16.925781 36.21875 -19.300781 38.46875 -22.9375 C 40.726562 -26.570312 41.507812 -30.789062 40.8125 -35.59375 L 40.328125 -39.421875 C 40.328125 -39.847656 40.4375 -40.25 40.65625 -40.625 C 40.875 -41 41.179688 -41.238281 41.578125 -41.34375 L 49.171875 -42.78125 C 49.660156 -42.90625 50.066406 -42.847656 50.390625 -42.609375 C 50.710938 -42.378906 50.875 -42.046875 50.875 -41.609375 L 51.1875 -39.171875 C 52.1875 -31.054688 50.742188 -24.019531 46.859375 -18.0625 C 42.972656 -12.101562 37.296875 -8.175781 29.828125 -6.28125 Z M 29.828125 -6.28125 "/></g></g></g><g fill="rgb(100%, 100%, 100%)" fill-opacity="1"><g transform="translate(115.715722, 243.09861)"><g><path d="M 8.953125 -2.265625 C 7.953125 -2.015625 7.425781 -2.410156 7.375 -3.453125 L -5.96875 -108.03125 C -6.007812 -109.070312 -5.582031 -109.707031 -4.6875 -109.9375 L 17.53125 -115.578125 C 24.195312 -117.265625 29.953125 -116.578125 34.796875 -113.515625 C 39.640625 -110.453125 42.957031 -105.390625 44.75 -98.328125 C 45 -97.335938 45.332031 -95.628906 45.75 -93.203125 L 52.03125 -42.71875 C 53.175781 -34.007812 51.847656 -26.5 48.046875 -20.1875 C 44.253906 -13.882812 38.679688 -9.800781 31.328125 -7.9375 Z M 16.453125 -14.640625 C 16.554688 -14.242188 16.800781 -14.097656 17.1875 -14.203125 L 29.84375 -17.5625 C 34.125 -18.644531 37.332031 -21.226562 39.46875 -25.3125 C 41.601562 -29.40625 42.320312 -34.484375 41.625 -40.546875 L 35.25 -90.0625 C 34.957031 -92.101562 34.710938 -93.519531 34.515625 -94.3125 C 33.328125 -98.988281 31.335938 -102.347656 28.546875 -104.390625 C 25.753906 -106.429688 22.460938 -106.96875 18.671875 -106 L 6 -102.796875 C 5.8125 -102.742188 5.648438 -102.648438 5.515625 -102.515625 C 5.390625 -102.378906 5.351562 -102.210938 5.40625 -102.015625 Z M 16.453125 -14.640625 "/></g></g></g><g fill="rgb(100%, 100%, 100%)" fill-opacity="1"><g transform="translate(182.985876, 226.044577)"><g><path d="M 29.828125 -6.28125 C 23.160156 -4.59375 17.375 -5.191406 12.46875 -8.078125 C 7.5625 -10.960938 4.265625 -15.738281 2.578125 -22.40625 C 2.367188 -23.195312 2.117188 -24.613281 1.828125 -26.65625 L -5.34375 -83.734375 C -6.320312 -91.742188 -4.890625 -98.71875 -1.046875 -104.65625 C 2.785156 -110.601562 8.4375 -114.519531 15.90625 -116.40625 C 22.65625 -118.125 28.484375 -117.539062 33.390625 -114.65625 C 38.304688 -111.78125 41.609375 -107.007812 43.296875 -100.34375 C 43.515625 -99.457031 43.753906 -98.09375 44.015625 -96.25 L 44.21875 -93.59375 C 44.320312 -93.195312 44.257812 -92.8125 44.03125 -92.4375 C 43.8125 -92.0625 43.5 -91.820312 43.09375 -91.71875 L 35.609375 -89.34375 C 34.722656 -89.113281 34.148438 -89.5 33.890625 -90.5 L 33.390625 -94.359375 C 33.335938 -94.972656 33.160156 -95.875 32.859375 -97.0625 C 31.847656 -101.039062 29.925781 -103.914062 27.09375 -105.6875 C 24.269531 -107.457031 20.921875 -107.851562 17.046875 -106.875 C 12.765625 -105.789062 9.492188 -103.425781 7.234375 -99.78125 C 4.984375 -96.132812 4.15625 -91.90625 4.75 -87.09375 L 12.171875 -28.328125 C 12.234375 -27.710938 12.390625 -26.90625 12.640625 -25.90625 C 13.648438 -21.925781 15.582031 -19.003906 18.4375 -17.140625 C 21.289062 -15.273438 24.65625 -14.832031 28.53125 -15.8125 C 32.90625 -16.925781 36.21875 -19.300781 38.46875 -22.9375 C 40.726562 -26.570312 41.507812 -30.789062 40.8125 -35.59375 L 40.328125 -39.421875 C 40.328125 -39.847656 40.4375 -40.25 40.65625 -40.625 C 40.875 -41 41.179688 -41.238281 41.578125 -41.34375 L 49.171875 -42.78125 C 49.660156 -42.90625 50.066406 -42.847656 50.390625 -42.609375 C 50.710938 -42.378906 50.875 -42.046875 50.875 -41.609375 L 51.1875 -39.171875 C 52.1875 -31.054688 50.742188 -24.019531 46.859375 -18.0625 C 42.972656 -12.101562 37.296875 -8.175781 29.828125 -6.28125 Z M 29.828125 -6.28125 "/></g></g></g><g fill="rgb(0%, 0%, 0%)" fill-opacity="1"><g transform="translate(33.528869, 288.000641)"><g><path d="M 34.265625 -18.65625 C 34.265625 -12.613281 32.625 -7.992188 29.34375 -4.796875 C 26.0625 -1.597656 21.335938 0 15.171875 0 L 5.03125 0 L 5.03125 -36.625 L 16.25 -36.625 C 21.945312 -36.625 26.375 -35.046875 29.53125 -31.890625 C 32.6875 -28.734375 34.265625 -24.320312 34.265625 -18.65625 Z M 29.75 -18.515625 C 29.75 -23.285156 28.550781 -26.878906 26.15625 -29.296875 C 23.757812 -31.722656 20.203125 -32.9375 15.484375 -32.9375 L 9.296875 -32.9375 L 9.296875 -3.6875 L 14.484375 -3.6875 C 19.554688 -3.6875 23.367188 -4.929688 25.921875 -7.421875 C 28.472656 -9.921875 29.75 -13.617188 29.75 -18.515625 Z M 29.75 -18.515625 "/></g></g><g transform="translate(70.921033, 288.000641)"><g><path d="M 16 0.5 C 11.945312 0.5 8.742188 -0.734375 6.390625 -3.203125 C 4.046875 -5.671875 2.875 -9.101562 2.875 -13.5 C 2.875 -17.925781 3.960938 -21.441406 6.140625 -24.046875 C 8.328125 -26.648438 11.253906 -27.953125 14.921875 -27.953125 C 18.367188 -27.953125 21.09375 -26.820312 23.09375 -24.5625 C 25.09375 -22.300781 26.09375 -19.316406 26.09375 -15.609375 L 26.09375 -12.96875 L 7.1875 -12.96875 C 7.269531 -9.75 8.082031 -7.300781 9.625 -5.625 C 11.175781 -3.957031 13.351562 -3.125 16.15625 -3.125 C 19.113281 -3.125 22.035156 -3.742188 24.921875 -4.984375 L 24.921875 -1.28125 C 23.453125 -0.644531 22.0625 -0.191406 20.75 0.078125 C 19.4375 0.359375 17.851562 0.5 16 0.5 Z M 14.875 -24.46875 C 12.675781 -24.46875 10.921875 -23.75 9.609375 -22.3125 C 8.296875 -20.875 7.519531 -18.890625 7.28125 -16.359375 L 21.640625 -16.359375 C 21.640625 -18.972656 21.054688 -20.976562 19.890625 -22.375 C 18.722656 -23.769531 17.050781 -24.46875 14.875 -24.46875 Z M 14.875 -24.46875 "/></g></g><g transform="translate(99.697721, 288.000641)"><g><path d="M 10.421875 0 L 0 -27.453125 L 4.453125 -27.453125 L 10.375 -11.171875 C 11.707031 -7.359375 12.488281 -4.882812 12.71875 -3.75 L 12.921875 -3.75 C 13.109375 -4.632812 13.6875 -6.46875 14.65625 -9.25 C 15.632812 -12.03125 17.828125 -18.097656 21.234375 -27.453125 L 25.703125 -27.453125 L 15.28125 0 Z M 10.421875 0 "/></g></g><g transform="translate(125.393876, 288.000641)"><g><path d="M 22.109375 -7.484375 C 22.109375 -4.929688 21.15625 -2.960938 19.25 -1.578125 C 17.351562 -0.191406 14.6875 0.5 11.25 0.5 C 7.601562 0.5 4.765625 -0.078125 2.734375 -1.234375 L 2.734375 -5.078125 C 4.046875 -4.410156 5.457031 -3.882812 6.96875 -3.5 C 8.488281 -3.125 9.945312 -2.9375 11.34375 -2.9375 C 13.519531 -2.9375 15.191406 -3.28125 16.359375 -3.96875 C 17.523438 -4.664062 18.109375 -5.722656 18.109375 -7.140625 C 18.109375 -8.203125 17.644531 -9.113281 16.71875 -9.875 C 15.789062 -10.632812 13.984375 -11.535156 11.296875 -12.578125 C 8.742188 -13.523438 6.925781 -14.351562 5.84375 -15.0625 C 4.769531 -15.769531 3.96875 -16.570312 3.4375 -17.46875 C 2.914062 -18.375 2.65625 -19.457031 2.65625 -20.71875 C 2.65625 -22.957031 3.5625 -24.722656 5.375 -26.015625 C 7.195312 -27.304688 9.695312 -27.953125 12.875 -27.953125 C 15.832031 -27.953125 18.722656 -27.351562 21.546875 -26.15625 L 20.0625 -22.765625 C 17.3125 -23.898438 14.816406 -24.46875 12.578125 -24.46875 C 10.609375 -24.46875 9.117188 -24.160156 8.109375 -23.546875 C 7.109375 -22.929688 6.609375 -22.078125 6.609375 -20.984375 C 6.609375 -20.253906 6.796875 -19.628906 7.171875 -19.109375 C 7.546875 -18.585938 8.148438 -18.09375 8.984375 -17.625 C 9.828125 -17.164062 11.429688 -16.492188 13.796875 -15.609375 C 17.054688 -14.421875 19.253906 -13.222656 20.390625 -12.015625 C 21.535156 -10.816406 22.109375 -9.304688 22.109375 -7.484375 Z M 22.109375 -7.484375 "/></g></g><g transform="translate(149.862827, 288.000641)"><g/></g><g transform="translate(163.186759, 288.000641)"><g><path d="M 20.71875 -33.34375 C 16.6875 -33.34375 13.503906 -32 11.171875 -29.3125 C 8.847656 -26.632812 7.6875 -22.96875 7.6875 -18.3125 C 7.6875 -13.519531 8.804688 -9.816406 11.046875 -7.203125 C 13.296875 -4.585938 16.5 -3.28125 20.65625 -3.28125 C 23.21875 -3.28125 26.132812 -3.738281 29.40625 -4.65625 L 29.40625 -0.921875 C 26.863281 0.0234375 23.734375 0.5 20.015625 0.5 C 14.617188 0.5 10.453125 -1.132812 7.515625 -4.40625 C 4.585938 -7.675781 3.125 -12.328125 3.125 -18.359375 C 3.125 -22.128906 3.828125 -25.429688 5.234375 -28.265625 C 6.648438 -31.109375 8.691406 -33.296875 11.359375 -34.828125 C 14.023438 -36.367188 17.160156 -37.140625 20.765625 -37.140625 C 24.609375 -37.140625 27.960938 -36.441406 30.828125 -35.046875 L 29.03125 -31.390625 C 26.257812 -32.691406 23.488281 -33.34375 20.71875 -33.34375 Z M 20.71875 -33.34375 "/></g></g><g transform="translate(195.54488, 288.000641)"><g><path d="M 8.5625 0 L 4.40625 0 L 4.40625 -27.453125 L 8.5625 -27.453125 Z M 4.0625 -34.890625 C 4.0625 -35.835938 4.289062 -36.53125 4.75 -36.96875 C 5.21875 -37.414062 5.804688 -37.640625 6.515625 -37.640625 C 7.179688 -37.640625 7.753906 -37.414062 8.234375 -36.96875 C 8.722656 -36.519531 8.96875 -35.828125 8.96875 -34.890625 C 8.96875 -33.953125 8.722656 -33.253906 8.234375 -32.796875 C 7.753906 -32.335938 7.179688 -32.109375 6.515625 -32.109375 C 5.804688 -32.109375 5.21875 -32.335938 4.75 -32.796875 C 4.289062 -33.253906 4.0625 -33.953125 4.0625 -34.890625 Z M 4.0625 -34.890625 "/></g></g><g transform="translate(208.518183, 288.000641)"><g><path d="M 23.1875 0 L 23.1875 -17.765625 C 23.1875 -19.992188 22.675781 -21.660156 21.65625 -22.765625 C 20.644531 -23.867188 19.050781 -24.421875 16.875 -24.421875 C 14.007812 -24.421875 11.90625 -23.644531 10.5625 -22.09375 C 9.226562 -20.539062 8.5625 -17.976562 8.5625 -14.40625 L 8.5625 0 L 4.40625 0 L 4.40625 -27.453125 L 7.796875 -27.453125 L 8.46875 -23.6875 L 8.671875 -23.6875 C 9.515625 -25.039062 10.703125 -26.085938 12.234375 -26.828125 C 13.773438 -27.578125 15.492188 -27.953125 17.390625 -27.953125 C 20.691406 -27.953125 23.175781 -27.15625 24.84375 -25.5625 C 26.519531 -23.96875 27.359375 -21.414062 27.359375 -17.90625 L 27.359375 0 Z M 23.1875 0 "/></g></g><g transform="translate(239.999729, 288.000641)"><g><path d="M 16 0.5 C 11.945312 0.5 8.742188 -0.734375 6.390625 -3.203125 C 4.046875 -5.671875 2.875 -9.101562 2.875 -13.5 C 2.875 -17.925781 3.960938 -21.441406 6.140625 -24.046875 C 8.328125 -26.648438 11.253906 -27.953125 14.921875 -27.953125 C 18.367188 -27.953125 21.09375 -26.820312 23.09375 -24.5625 C 25.09375 -22.300781 26.09375 -19.316406 26.09375 -15.609375 L 26.09375 -12.96875 L 7.1875 -12.96875 C 7.269531 -9.75 8.082031 -7.300781 9.625 -5.625 C 11.175781 -3.957031 13.351562 -3.125 16.15625 -3.125 C 19.113281 -3.125 22.035156 -3.742188 24.921875 -4.984375 L 24.921875 -1.28125 C 23.453125 -0.644531 22.0625 -0.191406 20.75 0.078125 C 19.4375 0.359375 17.851562 0.5 16 0.5 Z M 14.875 -24.46875 C 12.675781 -24.46875 10.921875 -23.75 9.609375 -22.3125 C 8.296875 -20.875 7.519531 -18.890625 7.28125 -16.359375 L 21.640625 -16.359375 C 21.640625 -18.972656 21.054688 -20.976562 19.890625 -22.375 C 18.722656 -23.769531 17.050781 -24.46875 14.875 -24.46875 Z M 14.875 -24.46875 "/></g></g><g transform="translate(268.776418, 288.000641)"><g><path d="M 39.40625 0 L 39.40625 -17.859375 C 39.40625 -20.046875 38.9375 -21.6875 38 -22.78125 C 37.0625 -23.875 35.609375 -24.421875 33.640625 -24.421875 C 31.046875 -24.421875 29.128906 -23.675781 27.890625 -22.1875 C 26.660156 -20.707031 26.046875 -18.421875 26.046875 -15.328125 L 26.046875 0 L 21.890625 0 L 21.890625 -17.859375 C 21.890625 -20.046875 21.421875 -21.6875 20.484375 -22.78125 C 19.554688 -23.875 18.097656 -24.421875 16.109375 -24.421875 C 13.503906 -24.421875 11.59375 -23.640625 10.375 -22.078125 C 9.164062 -20.515625 8.5625 -17.957031 8.5625 -14.40625 L 8.5625 0 L 4.40625 0 L 4.40625 -27.453125 L 7.796875 -27.453125 L 8.46875 -23.6875 L 8.671875 -23.6875 C 9.453125 -25.03125 10.554688 -26.078125 11.984375 -26.828125 C 13.410156 -27.578125 15.007812 -27.953125 16.78125 -27.953125 C 21.070312 -27.953125 23.878906 -26.398438 25.203125 -23.296875 L 25.390625 -23.296875 C 26.210938 -24.734375 27.398438 -25.867188 28.953125 -26.703125 C 30.503906 -27.535156 32.273438 -27.953125 34.265625 -27.953125 C 37.367188 -27.953125 39.691406 -27.15625 41.234375 -25.5625 C 42.785156 -23.96875 43.5625 -21.414062 43.5625 -17.90625 L 43.5625 0 Z M 39.40625 0 "/></g></g><g transform="translate(316.487115, 288.000641)"><g><path d="M 21.296875 0 L 20.46875 -3.90625 L 20.265625 -3.90625 C 18.890625 -2.1875 17.519531 -1.019531 16.15625 -0.40625 C 14.800781 0.195312 13.109375 0.5 11.078125 0.5 C 8.347656 0.5 6.210938 -0.195312 4.671875 -1.59375 C 3.128906 -3 2.359375 -5 2.359375 -7.59375 C 2.359375 -13.132812 6.789062 -16.039062 15.65625 -16.3125 L 20.3125 -16.453125 L 20.3125 -18.15625 C 20.3125 -20.3125 19.847656 -21.898438 18.921875 -22.921875 C 17.992188 -23.953125 16.515625 -24.46875 14.484375 -24.46875 C 12.191406 -24.46875 9.601562 -23.769531 6.71875 -22.375 L 5.4375 -25.546875 C 6.789062 -26.285156 8.269531 -26.863281 9.875 -27.28125 C 11.488281 -27.695312 13.109375 -27.90625 14.734375 -27.90625 C 18.003906 -27.90625 20.425781 -27.175781 22 -25.71875 C 23.582031 -24.269531 24.375 -21.941406 24.375 -18.734375 L 24.375 0 Z M 11.890625 -2.9375 C 14.484375 -2.9375 16.519531 -3.644531 18 -5.0625 C 19.476562 -6.476562 20.21875 -8.460938 20.21875 -11.015625 L 20.21875 -13.5 L 16.0625 -13.328125 C 12.75 -13.210938 10.363281 -12.695312 8.90625 -11.78125 C 7.445312 -10.875 6.71875 -9.460938 6.71875 -7.546875 C 6.71875 -6.035156 7.171875 -4.890625 8.078125 -4.109375 C 8.984375 -3.328125 10.253906 -2.9375 11.890625 -2.9375 Z M 11.890625 -2.9375 "/></g></g></g></svg>