<svg xmlns="http://www.w3.org/2000/svg" xmlns:xlink="http://www.w3.org/1999/xlink" width="500" zoomAndPan="magnify" viewBox="0 0 375 225" height="300" preserveAspectRatio="xMidYMid meet" version="1.0"><defs><g/></defs><path fill="rgb(94.509888%, 94.509888%, 94.898987%)" d="M 233.359375 8.28125 C 233.359375 8.28125 210.089844 -0.683594 207.003906 16.792969 C 203.914062 34.269531 206.550781 44.0625 211.898438 48.503906 C 217.246094 52.949219 224.851562 55.210938 224.398438 47.148438 C 223.945312 39.089844 223.042969 27.941406 230.195312 29.75 C 237.351562 31.558594 281.550781 53.023438 281.550781 53.023438 L 311.296875 91.0625 L 157.304688 153.207031 L 22.0625 70.800781 C 19.050781 68.992188 15.585938 68.015625 12.046875 68.390625 C 6.777344 68.84375 0.449219 76.226562 2.03125 89.257812 C 4.742188 111.628906 12.121094 120.214844 15.210938 120.214844 C 21.609375 120.214844 21.460938 113.8125 20.105469 108.464844 C 18.75 103.117188 19.652344 95.960938 21.460938 96.863281 C 23.265625 97.769531 68.824219 125.941406 68.824219 125.941406 L 108.132812 181.378906 L 159.863281 214.445312 C 160.917969 216.253906 163.101562 217.308594 165.285156 216.554688 C 168.976562 215.351562 172.964844 216.78125 175 220.097656 L 175.152344 220.398438 C 177.183594 223.710938 181.324219 225.066406 184.863281 223.5625 L 237.199219 202.019531 C 249.851562 196.371094 249.171875 189.589844 255.648438 177.3125 L 267.46875 155.015625 C 268.976562 152.230469 271.460938 150.042969 274.550781 149.066406 L 276.882812 148.3125 C 280.121094 147.257812 283.660156 148.460938 285.617188 151.324219 L 293.074219 162.320312 C 296.160156 166.917969 302.183594 168.648438 307.230469 166.390625 L 349.097656 148.085938 C 353.238281 146.277344 356.25 142.664062 357.230469 138.292969 L 357.457031 137.3125 C 358.738281 131.890625 362.351562 127.445312 367.394531 125.113281 C 369.804688 123.980469 371.3125 121.722656 371.460938 119.085938 L 374.324219 65.679688 Z M 233.359375 8.28125 " fill-opacity="1" fill-rule="nonzero"/><path fill="rgb(33.329773%, 68.238831%, 87.449646%)" d="M 240.8125 181.152344 L 187.199219 205.484375 C 182.304688 207.667969 176.808594 204.128906 176.808594 198.78125 L 176.808594 170.609375 C 176.808594 163.375 181.175781 156.824219 187.800781 154.035156 L 241.941406 131.136719 C 246.761719 129.105469 252.183594 132.644531 252.183594 137.917969 L 252.183594 163.453125 C 252.257812 171.058594 247.816406 177.988281 240.8125 181.152344 Z M 240.8125 181.152344 " fill-opacity="1" fill-rule="nonzero"/><path fill="rgb(89.408875%, 24.708557%, 19.60907%)" d="M 349.097656 131.738281 L 307.003906 151.324219 C 302.636719 153.359375 297.589844 150.121094 297.589844 145.296875 L 297.589844 122.925781 C 297.589844 113.359375 303.464844 104.699219 312.351562 101.15625 L 353.917969 84.738281 C 357.15625 83.457031 360.695312 85.941406 360.542969 89.40625 L 359.640625 115.847656 C 359.339844 122.777344 355.273438 128.878906 349.097656 131.738281 Z M 349.097656 131.738281 " fill-opacity="1" fill-rule="nonzero"/><path fill="rgb(57.649231%, 57.249451%, 57.249451%)" d="M 374.550781 65.527344 L 233.359375 8.28125 C 233.359375 8.28125 210.089844 -0.683594 207.003906 16.792969 C 203.914062 34.269531 206.550781 44.0625 211.898438 48.503906 C 217.246094 52.949219 224.851562 55.210938 224.398438 47.148438 C 223.945312 39.089844 223.042969 27.941406 230.195312 29.75 C 237.351562 31.558594 281.550781 53.023438 281.550781 53.023438 L 311.296875 91.0625 Z M 374.550781 65.527344 " fill-opacity="0.2" fill-rule="nonzero"/><path fill="rgb(57.649231%, 57.249451%, 57.249451%)" d="M 157.378906 153.132812 L 22.0625 70.800781 C 19.050781 68.992188 15.585938 68.015625 12.046875 68.390625 C 6.777344 68.84375 0.449219 76.226562 2.03125 89.257812 C 4.742188 111.628906 12.121094 120.214844 15.210938 120.214844 C 21.609375 120.214844 21.460938 113.8125 20.105469 108.464844 C 18.75 103.117188 19.652344 95.960938 21.460938 96.863281 C 23.265625 97.769531 68.824219 125.941406 68.824219 125.941406 L 108.132812 181.378906 L 159.863281 214.445312 Z M 157.378906 153.132812 " fill-opacity="0.1765" fill-rule="nonzero"/><g fill="rgb(0%, 29.019165%, 67.83905%)" fill-opacity="0.4"><g transform="translate(124.551616, 121.719706)"><g><path d="M 48.179688 -0.09375 C 48.46875 -0.09375 48.753906 -0.191406 48.847656 -0.191406 C 48.941406 -0.191406 49.324219 -1.90625 43.609375 -5.617188 L 49.039062 -13.425781 C 48.847656 -13.519531 48.941406 -13.617188 48.753906 -13.617188 C 52.65625 -19.328125 54.179688 -28.660156 54.179688 -35.800781 C 54.179688 -36.945312 54.179688 -38.089844 54.085938 -39.039062 C 53.894531 -40.46875 55.324219 -44.277344 54.371094 -46.085938 C 51.800781 -51.039062 51.894531 -60.941406 41.992188 -64.082031 C 40.46875 -64.558594 38.945312 -64.75 37.515625 -64.75 C 28.375 -64.75 20.089844 -56.847656 15.996094 -52.085938 C 16.1875 -55.417969 17.234375 -59.035156 10 -61.703125 C 9.332031 -61.894531 8.378906 -62.082031 7.523438 -62.082031 C 6.664062 -62.082031 5.902344 -61.894531 5.238281 -61.417969 L 4.664062 -55.132812 C 5.140625 -50.085938 4 -43.992188 4.09375 -39.039062 L 4 -34.660156 C 4 -34.183594 3.902344 -33.992188 4 -33.613281 L 4.191406 -30.375 C 4.378906 -27.613281 3.523438 -24.375 3.523438 -20.664062 C 3.523438 -19.710938 3.617188 -18.757812 3.714844 -17.710938 L 3.714844 -17.617188 C 2.761719 -17.617188 1.714844 -17.710938 0.761719 -17.710938 C -7.523438 -17.710938 -14.378906 -15.996094 -16.1875 -9.710938 C -17.042969 -9.238281 -17.328125 -8.285156 -17.234375 -7.238281 C -16.28125 3.046875 -0.570312 10 8.949219 10 C 13.046875 10 16.378906 9.046875 21.425781 8.472656 C 27.804688 7.902344 36.851562 2.09375 40.945312 -3.046875 C 41.039062 -3.140625 41.136719 -3.238281 41.230469 -3.238281 C 41.421875 -3.238281 41.609375 -3.140625 41.898438 -3.046875 C 43.230469 -2.667969 45.609375 -0.667969 46.945312 -0.285156 C 47.230469 -0.191406 47.800781 -0.09375 48.179688 -0.09375 Z M 16.566406 -47.992188 C 17.617188 -51.039062 24.949219 -57.417969 30.945312 -59.511719 C 31.042969 -59.609375 31.230469 -59.609375 31.421875 -59.609375 C 34.183594 -59.609375 40.847656 -53.511719 41.136719 -50.753906 L 41.136719 -49.132812 C 41.230469 -47.894531 41.707031 -46.371094 41.800781 -44.847656 C 41.898438 -43.800781 41.898438 -42.753906 41.898438 -41.707031 C 41.898438 -30.945312 37.800781 -16.949219 31.804688 -11.902344 C 27.996094 -13.710938 23.519531 -15.519531 16.566406 -16.757812 L 13.234375 -17.042969 C 15.042969 -24.472656 16.664062 -39.800781 16.664062 -43.421875 C 16.664062 -44.753906 16.949219 -45.894531 16.757812 -46.945312 Z M 29.234375 -8 C 23.425781 -0.855469 14.855469 6.476562 4.761719 6.476562 C 2.667969 6.476562 0.570312 6.1875 -1.617188 5.523438 C -6.855469 3.902344 -13.332031 -1.617188 -14.378906 -5.714844 C -14.664062 -13.140625 -7.332031 -15.519531 1.332031 -15.710938 L 4.191406 -15.519531 C 5.140625 -12.378906 6.664062 -8.761719 8.570312 -8.472656 L 8.761719 -8.472656 C 10 -8.472656 10.378906 -11.425781 11.425781 -12.949219 C 11.808594 -12.757812 12.285156 -13.617188 12.757812 -15.042969 C 17.140625 -14.664062 26.660156 -12.285156 29.804688 -9.332031 C 29.421875 -8.855469 29.328125 -8.570312 29.234375 -8 Z M 29.234375 -8 "/></g></g></g><g fill="rgb(0%, 29.019165%, 67.83905%)" fill-opacity="0.4"><g transform="translate(181.68052, 121.719706)"><g><path d="M -1.617188 -30.851562 C -2 -28.851562 -2 -26.28125 -2 -23.804688 L -2 -19.042969 C -2 -18.664062 -1.90625 -18.28125 -1.90625 -17.902344 C -1.332031 -12.378906 0.09375 -8 3.046875 -3.332031 C 8.09375 3.046875 14.664062 6.664062 23.042969 6.664062 C 25.804688 6.476562 28.757812 6.1875 31.898438 4.570312 C 34.089844 3.902344 36.089844 2.761719 38.183594 1.429688 L 38.945312 0.285156 C 42.183594 -1.238281 44.371094 -2.953125 47.039062 -5.808594 C 47.230469 -6.285156 47.992188 -7.046875 48.277344 -7.238281 C 48.46875 -7.523438 48.65625 -7.808594 48.65625 -8 C 50.5625 -9.710938 54.277344 -13.710938 55.132812 -16.28125 C 55.132812 -16.28125 55.324219 -16.566406 55.417969 -16.664062 L 55.511719 -16.855469 L 55.511719 -16.949219 C 56.273438 -17.996094 57.226562 -20.566406 57.511719 -21.234375 L 58.464844 -22.664062 C 58.558594 -22.757812 58.558594 -22.757812 58.558594 -22.851562 C 58.847656 -23.136719 59.035156 -23.710938 59.320312 -24.375 C 59.894531 -26.089844 59.796875 -26.660156 59.417969 -26.375 C 59.320312 -26.660156 59.132812 -26.851562 58.75 -26.851562 C 57.988281 -26.851562 56.75 -25.804688 56.464844 -23.328125 C 56.085938 -22.1875 53.703125 -19.902344 51.800781 -16.664062 C 50.277344 -14.28125 47.230469 -10.472656 45.132812 -8.378906 C 42.46875 -6 39.613281 -2.953125 35.707031 -1.808594 C 33.804688 -0.855469 31.328125 0.761719 29.234375 1.238281 C 27.613281 1.238281 25.613281 0.382812 24.28125 -0.476562 C 24.089844 -0.382812 23.710938 -0.570312 23.425781 -0.761719 C 16.472656 -1.90625 13.902344 -9.332031 13.425781 -15.519531 C 13.425781 -15.996094 13.425781 -16.378906 13.332031 -16.472656 C 12.949219 -18.378906 12.855469 -20.1875 12.949219 -22.089844 C 12.472656 -24.660156 13.234375 -26.089844 13.710938 -29.136719 C 14.09375 -30.757812 14.570312 -33.136719 15.042969 -35.800781 C 16.757812 -42.5625 19.140625 -49.324219 23.136719 -55.132812 C 23.328125 -55.703125 23.710938 -56.273438 23.804688 -56.75 C 24.375 -57.703125 25.136719 -58.65625 25.710938 -59.511719 C 26.375 -60.082031 27.042969 -61.035156 27.613281 -61.988281 C 27.996094 -63.035156 28.472656 -64.082031 28.757812 -64.65625 C 29.519531 -65.511719 30.566406 -66.558594 31.613281 -67.511719 C 33.328125 -68.652344 36.277344 -70.460938 38.277344 -70.460938 C 39.230469 -70.460938 41.230469 -71.035156 42.371094 -71.035156 C 42.5625 -71.035156 42.660156 -71.035156 42.753906 -71.035156 C 43.894531 -70.75 43.132812 -68.464844 43.421875 -67.128906 C 43.707031 -66.367188 43.707031 -65.511719 43.515625 -64.558594 C 43.324219 -63.132812 43.421875 -62.75 43.132812 -61.988281 C 43.230469 -61.894531 42.847656 -61.132812 43.132812 -61.132812 C 43.132812 -60.082031 43.324219 -59.132812 43.609375 -58.371094 C 43.707031 -57.609375 43.800781 -57.132812 43.992188 -57.132812 C 44.5625 -56.085938 46.085938 -54.085938 47.707031 -54.179688 C 47.992188 -54.371094 50.464844 -54.941406 51.132812 -55.988281 C 50.941406 -56.273438 51.039062 -57.226562 51.417969 -58.273438 L 51.703125 -58.65625 C 53.039062 -60.464844 54.085938 -65.605469 54.085938 -67.890625 C 54.085938 -69.414062 53.800781 -70.75 53.226562 -71.890625 C 51.800781 -74.367188 47.230469 -74.558594 44.65625 -74.558594 C 42.46875 -76.558594 38.660156 -77.03125 35.800781 -77.03125 C 34.660156 -77.03125 33.421875 -76.84375 32.375 -76.558594 C 28.183594 -76.269531 22.757812 -74.746094 19.425781 -71.984375 C 13.140625 -68.84375 8 -61.132812 5.140625 -54.941406 C 4.953125 -54.464844 4.855469 -53.988281 4.664062 -53.703125 C 2.285156 -49.230469 0.953125 -44.085938 0.382812 -40.375 C 0 -38.945312 -0.570312 -37.230469 -0.855469 -35.707031 L -1.046875 -33.898438 Z M -1.617188 -30.851562 "/></g></g></g><g fill="rgb(85.099792%, 85.099792%, 85.099792%)" fill-opacity="1"><g transform="translate(120.343274, 117.511371)"><g><path d="M 48.179688 -0.09375 C 48.46875 -0.09375 48.753906 -0.191406 48.847656 -0.191406 C 48.941406 -0.191406 49.324219 -1.90625 43.609375 -5.617188 L 49.039062 -13.425781 C 48.847656 -13.519531 48.941406 -13.617188 48.753906 -13.617188 C 52.65625 -19.328125 54.179688 -28.660156 54.179688 -35.800781 C 54.179688 -36.945312 54.179688 -38.089844 54.085938 -39.039062 C 53.894531 -40.46875 55.324219 -44.277344 54.371094 -46.085938 C 51.800781 -51.039062 51.894531 -60.941406 41.992188 -64.082031 C 40.46875 -64.558594 38.945312 -64.75 37.515625 -64.75 C 28.375 -64.75 20.089844 -56.847656 15.996094 -52.085938 C 16.1875 -55.417969 17.234375 -59.035156 10 -61.703125 C 9.332031 -61.894531 8.378906 -62.082031 7.523438 -62.082031 C 6.664062 -62.082031 5.902344 -61.894531 5.238281 -61.417969 L 4.664062 -55.132812 C 5.140625 -50.085938 4 -43.992188 4.09375 -39.039062 L 4 -34.660156 C 4 -34.183594 3.902344 -33.992188 4 -33.613281 L 4.191406 -30.375 C 4.378906 -27.613281 3.523438 -24.375 3.523438 -20.664062 C 3.523438 -19.710938 3.617188 -18.757812 3.714844 -17.710938 L 3.714844 -17.617188 C 2.761719 -17.617188 1.714844 -17.710938 0.761719 -17.710938 C -7.523438 -17.710938 -14.378906 -15.996094 -16.1875 -9.710938 C -17.042969 -9.238281 -17.328125 -8.285156 -17.234375 -7.238281 C -16.28125 3.046875 -0.570312 10 8.949219 10 C 13.046875 10 16.378906 9.046875 21.425781 8.472656 C 27.804688 7.902344 36.851562 2.09375 40.945312 -3.046875 C 41.039062 -3.140625 41.136719 -3.238281 41.230469 -3.238281 C 41.421875 -3.238281 41.609375 -3.140625 41.898438 -3.046875 C 43.230469 -2.667969 45.609375 -0.667969 46.945312 -0.285156 C 47.230469 -0.191406 47.800781 -0.09375 48.179688 -0.09375 Z M 16.566406 -47.992188 C 17.617188 -51.039062 24.949219 -57.417969 30.945312 -59.511719 C 31.042969 -59.609375 31.230469 -59.609375 31.421875 -59.609375 C 34.183594 -59.609375 40.847656 -53.511719 41.136719 -50.753906 L 41.136719 -49.132812 C 41.230469 -47.894531 41.707031 -46.371094 41.800781 -44.847656 C 41.898438 -43.800781 41.898438 -42.753906 41.898438 -41.707031 C 41.898438 -30.945312 37.800781 -16.949219 31.804688 -11.902344 C 27.996094 -13.710938 23.519531 -15.519531 16.566406 -16.757812 L 13.234375 -17.042969 C 15.042969 -24.472656 16.664062 -39.800781 16.664062 -43.421875 C 16.664062 -44.753906 16.949219 -45.894531 16.757812 -46.945312 Z M 29.234375 -8 C 23.425781 -0.855469 14.855469 6.476562 4.761719 6.476562 C 2.667969 6.476562 0.570312 6.1875 -1.617188 5.523438 C -6.855469 3.902344 -13.332031 -1.617188 -14.378906 -5.714844 C -14.664062 -13.140625 -7.332031 -15.519531 1.332031 -15.710938 L 4.191406 -15.519531 C 5.140625 -12.378906 6.664062 -8.761719 8.570312 -8.472656 L 8.761719 -8.472656 C 10 -8.472656 10.378906 -11.425781 11.425781 -12.949219 C 11.808594 -12.757812 12.285156 -13.617188 12.757812 -15.042969 C 17.140625 -14.664062 26.660156 -12.285156 29.804688 -9.332031 C 29.421875 -8.855469 29.328125 -8.570312 29.234375 -8 Z M 29.234375 -8 "/></g></g></g><g fill="rgb(85.099792%, 85.099792%, 85.099792%)" fill-opacity="1"><g transform="translate(177.472178, 117.511371)"><g><path d="M -1.617188 -30.851562 C -2 -28.851562 -2 -26.28125 -2 -23.804688 L -2 -19.042969 C -2 -18.664062 -1.90625 -18.28125 -1.90625 -17.902344 C -1.332031 -12.378906 0.09375 -8 3.046875 -3.332031 C 8.09375 3.046875 14.664062 6.664062 23.042969 6.664062 C 25.804688 6.476562 28.757812 6.1875 31.898438 4.570312 C 34.089844 3.902344 36.089844 2.761719 38.183594 1.429688 L 38.945312 0.285156 C 42.183594 -1.238281 44.371094 -2.953125 47.039062 -5.808594 C 47.230469 -6.285156 47.992188 -7.046875 48.277344 -7.238281 C 48.46875 -7.523438 48.65625 -7.808594 48.65625 -8 C 50.5625 -9.710938 54.277344 -13.710938 55.132812 -16.28125 C 55.132812 -16.28125 55.324219 -16.566406 55.417969 -16.664062 L 55.511719 -16.855469 L 55.511719 -16.949219 C 56.273438 -17.996094 57.226562 -20.566406 57.511719 -21.234375 L 58.464844 -22.664062 C 58.558594 -22.757812 58.558594 -22.757812 58.558594 -22.851562 C 58.847656 -23.136719 59.035156 -23.710938 59.320312 -24.375 C 59.894531 -26.089844 59.796875 -26.660156 59.417969 -26.375 C 59.320312 -26.660156 59.132812 -26.851562 58.75 -26.851562 C 57.988281 -26.851562 56.75 -25.804688 56.464844 -23.328125 C 56.085938 -22.1875 53.703125 -19.902344 51.800781 -16.664062 C 50.277344 -14.28125 47.230469 -10.472656 45.132812 -8.378906 C 42.46875 -6 39.613281 -2.953125 35.707031 -1.808594 C 33.804688 -0.855469 31.328125 0.761719 29.234375 1.238281 C 27.613281 1.238281 25.613281 0.382812 24.28125 -0.476562 C 24.089844 -0.382812 23.710938 -0.570312 23.425781 -0.761719 C 16.472656 -1.90625 13.902344 -9.332031 13.425781 -15.519531 C 13.425781 -15.996094 13.425781 -16.378906 13.332031 -16.472656 C 12.949219 -18.378906 12.855469 -20.1875 12.949219 -22.089844 C 12.472656 -24.660156 13.234375 -26.089844 13.710938 -29.136719 C 14.09375 -30.757812 14.570312 -33.136719 15.042969 -35.800781 C 16.757812 -42.5625 19.140625 -49.324219 23.136719 -55.132812 C 23.328125 -55.703125 23.710938 -56.273438 23.804688 -56.75 C 24.375 -57.703125 25.136719 -58.65625 25.710938 -59.511719 C 26.375 -60.082031 27.042969 -61.035156 27.613281 -61.988281 C 27.996094 -63.035156 28.472656 -64.082031 28.757812 -64.65625 C 29.519531 -65.511719 30.566406 -66.558594 31.613281 -67.511719 C 33.328125 -68.652344 36.277344 -70.460938 38.277344 -70.460938 C 39.230469 -70.460938 41.230469 -71.035156 42.371094 -71.035156 C 42.5625 -71.035156 42.660156 -71.035156 42.753906 -71.035156 C 43.894531 -70.75 43.132812 -68.464844 43.421875 -67.128906 C 43.707031 -66.367188 43.707031 -65.511719 43.515625 -64.558594 C 43.324219 -63.132812 43.421875 -62.75 43.132812 -61.988281 C 43.230469 -61.894531 42.847656 -61.132812 43.132812 -61.132812 C 43.132812 -60.082031 43.324219 -59.132812 43.609375 -58.371094 C 43.707031 -57.609375 43.800781 -57.132812 43.992188 -57.132812 C 44.5625 -56.085938 46.085938 -54.085938 47.707031 -54.179688 C 47.992188 -54.371094 50.464844 -54.941406 51.132812 -55.988281 C 50.941406 -56.273438 51.039062 -57.226562 51.417969 -58.273438 L 51.703125 -58.65625 C 53.039062 -60.464844 54.085938 -65.605469 54.085938 -67.890625 C 54.085938 -69.414062 53.800781 -70.75 53.226562 -71.890625 C 51.800781 -74.367188 47.230469 -74.558594 44.65625 -74.558594 C 42.46875 -76.558594 38.660156 -77.03125 35.800781 -77.03125 C 34.660156 -77.03125 33.421875 -76.84375 32.375 -76.558594 C 28.183594 -76.269531 22.757812 -74.746094 19.425781 -71.984375 C 13.140625 -68.84375 8 -61.132812 5.140625 -54.941406 C 4.953125 -54.464844 4.855469 -53.988281 4.664062 -53.703125 C 2.285156 -49.230469 0.953125 -44.085938 0.382812 -40.375 C 0 -38.945312 -0.570312 -37.230469 -0.855469 -35.707031 L -1.046875 -33.898438 Z M -1.617188 -30.851562 "/></g></g></g></svg>