<svg xmlns="http://www.w3.org/2000/svg" xmlns:xlink="http://www.w3.org/1999/xlink" width="500" zoomAndPan="magnify" viewBox="0 0 375 374.999991" height="500" preserveAspectRatio="xMidYMid meet" version="1.0"><defs><g/></defs><path fill="rgb(94.509888%, 94.509888%, 94.898987%)" d="M 233.359375 83.621094 C 233.359375 83.621094 210.089844 74.660156 207.003906 92.132812 C 203.914062 109.609375 206.550781 119.402344 211.898438 123.847656 C 217.246094 128.289062 224.851562 130.550781 224.398438 122.492188 C 223.945312 114.429688 223.042969 103.28125 230.195312 105.089844 C 237.351562 106.898438 281.550781 128.367188 281.550781 128.367188 L 311.296875 166.40625 L 157.304688 228.546875 L 22.0625 146.144531 C 19.050781 144.335938 15.585938 143.355469 12.046875 143.730469 C 6.777344 144.183594 0.449219 151.566406 2.03125 164.597656 C 4.742188 186.96875 12.121094 195.554688 15.210938 195.554688 C 21.609375 195.554688 21.460938 189.152344 20.105469 183.804688 C 18.75 178.457031 19.652344 171.300781 21.460938 172.207031 C 23.265625 173.109375 68.824219 201.28125 68.824219 201.28125 L 108.132812 256.71875 L 159.863281 289.789062 C 160.917969 291.597656 163.101562 292.652344 165.285156 291.898438 C 168.976562 290.691406 172.964844 292.125 175 295.4375 L 175.152344 295.738281 C 177.183594 299.054688 181.324219 300.410156 184.863281 298.902344 L 237.199219 277.359375 C 249.851562 271.710938 249.171875 264.929688 255.648438 252.652344 L 267.46875 230.355469 C 268.976562 227.570312 271.460938 225.386719 274.550781 224.40625 L 276.882812 223.652344 C 280.121094 222.597656 283.660156 223.804688 285.617188 226.664062 L 293.074219 237.664062 C 296.160156 242.257812 302.183594 243.992188 307.230469 241.730469 L 349.097656 223.425781 C 353.238281 221.617188 356.25 218.003906 357.230469 213.632812 L 357.457031 212.65625 C 358.738281 207.230469 362.351562 202.789062 367.394531 200.453125 C 369.804688 199.324219 371.3125 197.0625 371.460938 194.425781 L 374.324219 141.019531 Z M 233.359375 83.621094 " fill-opacity="1" fill-rule="nonzero"/><path fill="rgb(33.329773%, 68.238831%, 87.449646%)" d="M 240.8125 256.496094 L 187.199219 280.824219 C 182.304688 283.007812 176.808594 279.46875 176.808594 274.121094 L 176.808594 245.949219 C 176.808594 238.71875 181.175781 232.164062 187.800781 229.378906 L 241.941406 206.476562 C 246.761719 204.445312 252.183594 207.984375 252.183594 213.257812 L 252.183594 238.792969 C 252.257812 246.402344 247.816406 253.332031 240.8125 256.496094 Z M 240.8125 256.496094 " fill-opacity="1" fill-rule="nonzero"/><path fill="rgb(89.408875%, 24.708557%, 19.60907%)" d="M 349.097656 207.082031 L 307.003906 226.664062 C 302.636719 228.699219 297.589844 225.460938 297.589844 220.640625 L 297.589844 198.269531 C 297.589844 188.703125 303.464844 180.039062 312.351562 176.5 L 353.917969 160.078125 C 357.15625 158.796875 360.695312 161.28125 360.542969 164.75 L 359.640625 191.1875 C 359.339844 198.117188 355.273438 204.21875 349.097656 207.082031 Z M 349.097656 207.082031 " fill-opacity="1" fill-rule="nonzero"/><path fill="rgb(57.649231%, 57.249451%, 57.249451%)" d="M 374.550781 140.871094 L 233.359375 83.621094 C 233.359375 83.621094 210.089844 74.660156 207.003906 92.132812 C 203.914062 109.609375 206.550781 119.402344 211.898438 123.847656 C 217.246094 128.289062 224.851562 130.550781 224.398438 122.492188 C 223.945312 114.429688 223.042969 103.28125 230.195312 105.089844 C 237.351562 106.898438 281.550781 128.367188 281.550781 128.367188 L 311.296875 166.40625 Z M 374.550781 140.871094 " fill-opacity="0.2" fill-rule="nonzero"/><path fill="rgb(57.649231%, 57.249451%, 57.249451%)" d="M 157.378906 228.472656 L 22.0625 146.144531 C 19.050781 144.335938 15.585938 143.355469 12.046875 143.730469 C 6.777344 144.183594 0.449219 151.566406 2.03125 164.597656 C 4.742188 186.96875 12.121094 195.554688 15.210938 195.554688 C 21.609375 195.554688 21.460938 189.152344 20.105469 183.804688 C 18.75 178.457031 19.652344 171.300781 21.460938 172.207031 C 23.265625 173.109375 68.824219 201.28125 68.824219 201.28125 L 108.132812 256.71875 L 159.863281 289.789062 Z M 157.378906 228.472656 " fill-opacity="0.1765" fill-rule="nonzero"/><g fill="rgb(0%, 29.019165%, 67.83905%)" fill-opacity="1"><g transform="translate(120.346799, 192.666886)"><g><path d="M 48.175781 -0.09375 C 48.460938 -0.09375 48.746094 -0.191406 48.84375 -0.191406 C 48.9375 -0.191406 49.320312 -1.902344 43.605469 -5.617188 L 49.035156 -13.425781 C 48.84375 -13.519531 48.9375 -13.613281 48.746094 -13.613281 C 52.652344 -19.328125 54.175781 -28.660156 54.175781 -35.800781 C 54.175781 -36.941406 54.175781 -38.085938 54.078125 -39.035156 C 53.890625 -40.464844 55.316406 -44.273438 54.367188 -46.082031 C 51.792969 -51.03125 51.890625 -60.933594 41.988281 -64.078125 C 40.464844 -64.554688 38.941406 -64.742188 37.511719 -64.742188 C 28.371094 -64.742188 20.089844 -56.839844 15.996094 -52.082031 C 16.1875 -55.414062 17.234375 -59.03125 9.996094 -61.695312 C 9.332031 -61.886719 8.378906 -62.078125 7.523438 -62.078125 C 6.664062 -62.078125 5.902344 -61.886719 5.238281 -61.410156 L 4.664062 -55.128906 C 5.140625 -50.082031 4 -43.988281 4.09375 -39.035156 L 4 -34.65625 C 4 -34.179688 3.902344 -33.992188 4 -33.609375 L 4.1875 -30.371094 C 4.378906 -27.609375 3.523438 -24.375 3.523438 -20.660156 C 3.523438 -19.707031 3.617188 -18.757812 3.714844 -17.710938 L 3.714844 -17.613281 C 2.761719 -17.613281 1.714844 -17.710938 0.761719 -17.710938 C -7.523438 -17.710938 -14.375 -15.996094 -16.1875 -9.710938 C -17.042969 -9.234375 -17.328125 -8.285156 -17.234375 -7.234375 C -16.28125 3.046875 -0.570312 9.996094 8.949219 9.996094 C 13.042969 9.996094 16.375 9.046875 21.421875 8.472656 C 27.800781 7.902344 36.847656 2.09375 40.941406 -3.046875 C 41.035156 -3.140625 41.132812 -3.238281 41.226562 -3.238281 C 41.417969 -3.238281 41.605469 -3.140625 41.894531 -3.046875 C 43.226562 -2.664062 45.605469 -0.667969 46.9375 -0.285156 C 47.222656 -0.191406 47.796875 -0.09375 48.175781 -0.09375 Z M 16.566406 -47.984375 C 17.613281 -51.03125 24.945312 -57.414062 30.945312 -59.507812 C 31.039062 -59.601562 31.230469 -59.601562 31.417969 -59.601562 C 34.179688 -59.601562 40.84375 -53.507812 41.132812 -50.746094 L 41.132812 -49.128906 C 41.226562 -47.890625 41.703125 -46.367188 41.796875 -44.84375 C 41.894531 -43.796875 41.894531 -42.75 41.894531 -41.703125 C 41.894531 -30.945312 37.796875 -16.949219 31.800781 -11.902344 C 27.992188 -13.710938 23.515625 -15.519531 16.566406 -16.757812 L 13.234375 -17.042969 C 15.042969 -24.46875 16.660156 -39.796875 16.660156 -43.417969 C 16.660156 -44.75 16.949219 -45.890625 16.757812 -46.9375 Z M 29.230469 -7.996094 C 23.421875 -0.855469 14.851562 6.472656 4.761719 6.472656 C 2.664062 6.472656 0.570312 6.1875 -1.617188 5.523438 C -6.855469 3.902344 -13.328125 -1.617188 -14.375 -5.710938 C -14.664062 -13.140625 -7.332031 -15.519531 1.332031 -15.710938 L 4.1875 -15.519531 C 5.140625 -12.378906 6.664062 -8.757812 8.570312 -8.472656 L 8.757812 -8.472656 C 9.996094 -8.472656 10.378906 -11.425781 11.425781 -12.949219 C 11.804688 -12.757812 12.28125 -13.613281 12.757812 -15.042969 C 17.136719 -14.664062 26.660156 -12.28125 29.800781 -9.332031 C 29.421875 -8.855469 29.324219 -8.570312 29.230469 -7.996094 Z M 29.230469 -7.996094 "/></g></g></g><g fill="rgb(0%, 29.019165%, 67.83905%)" fill-opacity="1"><g transform="translate(177.469139, 192.666886)"><g><path d="M -1.617188 -30.847656 C -2 -28.847656 -2 -26.277344 -2 -23.800781 L -2 -19.042969 C -2 -18.660156 -1.902344 -18.28125 -1.902344 -17.898438 C -1.332031 -12.378906 0.09375 -7.996094 3.046875 -3.332031 C 8.09375 3.046875 14.664062 6.664062 23.039062 6.664062 C 25.800781 6.472656 28.753906 6.1875 31.894531 4.570312 C 34.085938 3.902344 36.085938 2.761719 38.179688 1.429688 L 38.941406 0.285156 C 42.179688 -1.238281 44.367188 -2.953125 47.035156 -5.808594 C 47.222656 -6.285156 47.984375 -7.046875 48.273438 -7.234375 C 48.460938 -7.523438 48.652344 -7.808594 48.652344 -7.996094 C 50.558594 -9.710938 54.269531 -13.710938 55.128906 -16.28125 C 55.128906 -16.28125 55.316406 -16.566406 55.414062 -16.660156 L 55.507812 -16.851562 L 55.507812 -16.949219 C 56.269531 -17.996094 57.222656 -20.566406 57.507812 -21.230469 L 58.460938 -22.660156 C 58.554688 -22.753906 58.554688 -22.753906 58.554688 -22.851562 C 58.839844 -23.136719 59.03125 -23.707031 59.316406 -24.375 C 59.886719 -26.085938 59.792969 -26.660156 59.410156 -26.375 C 59.316406 -26.660156 59.125 -26.847656 58.746094 -26.847656 C 57.984375 -26.847656 56.746094 -25.800781 56.460938 -23.328125 C 56.078125 -22.183594 53.699219 -19.898438 51.792969 -16.660156 C 50.269531 -14.28125 47.222656 -10.472656 45.128906 -8.378906 C 42.464844 -6 39.609375 -2.953125 35.703125 -1.808594 C 33.800781 -0.855469 31.324219 0.761719 29.230469 1.238281 C 27.609375 1.238281 25.613281 0.378906 24.277344 -0.476562 C 24.089844 -0.378906 23.707031 -0.570312 23.421875 -0.761719 C 16.472656 -1.902344 13.902344 -9.332031 13.425781 -15.519531 C 13.425781 -15.996094 13.425781 -16.375 13.328125 -16.472656 C 12.949219 -18.375 12.851562 -20.183594 12.949219 -22.089844 C 12.472656 -24.660156 13.234375 -26.085938 13.710938 -29.132812 C 14.089844 -30.753906 14.566406 -33.132812 15.042969 -35.800781 C 16.757812 -42.558594 19.136719 -49.320312 23.136719 -55.128906 C 23.328125 -55.699219 23.707031 -56.269531 23.800781 -56.746094 C 24.375 -57.699219 25.136719 -58.648438 25.707031 -59.507812 C 26.375 -60.078125 27.039062 -61.03125 27.609375 -61.980469 C 27.992188 -63.03125 28.46875 -64.078125 28.753906 -64.648438 C 29.515625 -65.503906 30.5625 -66.550781 31.609375 -67.503906 C 33.324219 -68.648438 36.273438 -70.457031 38.273438 -70.457031 C 39.226562 -70.457031 41.226562 -71.027344 42.367188 -71.027344 C 42.558594 -71.027344 42.65625 -71.027344 42.75 -71.027344 C 43.890625 -70.742188 43.128906 -68.457031 43.417969 -67.125 C 43.703125 -66.363281 43.703125 -65.503906 43.511719 -64.554688 C 43.320312 -63.125 43.417969 -62.742188 43.128906 -61.980469 C 43.226562 -61.886719 42.84375 -61.125 43.128906 -61.125 C 43.128906 -60.078125 43.320312 -59.125 43.605469 -58.363281 C 43.703125 -57.601562 43.796875 -57.125 43.988281 -57.125 C 44.558594 -56.078125 46.082031 -54.078125 47.699219 -54.175781 C 47.984375 -54.367188 50.460938 -54.9375 51.128906 -55.984375 C 50.9375 -56.269531 51.03125 -57.222656 51.414062 -58.269531 L 51.699219 -58.648438 C 53.03125 -60.457031 54.078125 -65.601562 54.078125 -67.886719 C 54.078125 -69.410156 53.792969 -70.742188 53.222656 -71.882812 C 51.792969 -74.359375 47.222656 -74.550781 44.652344 -74.550781 C 42.464844 -76.550781 38.65625 -77.027344 35.800781 -77.027344 C 34.65625 -77.027344 33.417969 -76.835938 32.371094 -76.550781 C 28.183594 -76.265625 22.753906 -74.742188 19.421875 -71.980469 C 13.140625 -68.835938 7.996094 -61.125 5.140625 -54.9375 C 4.949219 -54.460938 4.855469 -53.984375 4.664062 -53.699219 C 2.285156 -49.222656 0.953125 -44.082031 0.378906 -40.371094 C 0 -38.941406 -0.570312 -37.226562 -0.855469 -35.703125 L -1.046875 -33.894531 Z M -1.617188 -30.847656 "/></g></g></g></svg>