<svg xmlns="http://www.w3.org/2000/svg" xmlns:xlink="http://www.w3.org/1999/xlink" width="500" zoomAndPan="magnify" viewBox="0 0 375 374.999991" height="500" preserveAspectRatio="xMidYMid meet" version="1.0"><defs><g/></defs><g fill="rgb(0%, 29.019165%, 67.83905%)" fill-opacity="0.4"><g transform="translate(49.14837, 246.623721)"><g><path d="M 133.367188 -0.261719 C 134.15625 -0.261719 134.949219 -0.527344 135.210938 -0.527344 C 135.476562 -0.527344 136.53125 -5.269531 120.714844 -15.550781 L 135.738281 -37.164062 C 135.210938 -37.425781 135.476562 -37.691406 134.949219 -37.691406 C 145.753906 -53.503906 149.972656 -79.335938 149.972656 -99.101562 C 149.972656 -102.265625 149.972656 -105.429688 149.707031 -108.0625 C 149.179688 -112.019531 153.136719 -122.5625 150.5 -127.570312 C 143.382812 -141.273438 143.644531 -168.6875 116.234375 -177.382812 C 112.019531 -178.703125 107.800781 -179.226562 103.847656 -179.226562 C 78.542969 -179.226562 55.613281 -157.351562 44.28125 -144.171875 C 44.808594 -153.398438 47.707031 -163.414062 27.675781 -170.792969 C 25.828125 -171.320312 23.195312 -171.847656 20.820312 -171.847656 C 18.449219 -171.847656 16.339844 -171.320312 14.496094 -170.003906 L 12.914062 -152.609375 C 14.234375 -138.636719 11.070312 -121.769531 11.332031 -108.0625 L 11.070312 -95.941406 C 11.070312 -94.621094 10.804688 -94.09375 11.070312 -93.039062 L 11.597656 -84.078125 C 12.125 -76.4375 9.753906 -67.472656 9.753906 -57.195312 C 9.753906 -54.558594 10.015625 -51.921875 10.277344 -49.023438 L 10.277344 -48.761719 C 7.644531 -48.761719 4.746094 -49.023438 2.109375 -49.023438 C -20.820312 -49.023438 -39.800781 -44.28125 -44.808594 -26.882812 C -47.179688 -25.566406 -47.96875 -22.929688 -47.707031 -20.03125 C -45.070312 8.433594 -1.582031 27.675781 24.777344 27.675781 C 36.109375 27.675781 45.335938 25.039062 59.304688 23.457031 C 76.960938 21.875 102.003906 5.796875 113.335938 -8.433594 C 113.597656 -8.699219 113.863281 -8.960938 114.125 -8.960938 C 114.652344 -8.960938 115.179688 -8.699219 115.972656 -8.433594 C 119.660156 -7.378906 126.25 -1.84375 129.941406 -0.789062 C 130.730469 -0.527344 132.3125 -0.261719 133.367188 -0.261719 Z M 45.863281 -132.839844 C 48.761719 -141.273438 69.054688 -158.933594 85.660156 -164.730469 C 85.925781 -164.996094 86.453125 -164.996094 86.980469 -164.996094 C 94.621094 -164.996094 113.070312 -148.128906 113.863281 -140.484375 L 113.863281 -136.003906 C 114.125 -132.578125 115.445312 -128.359375 115.707031 -124.140625 C 115.972656 -121.242188 115.972656 -118.34375 115.972656 -115.445312 C 115.972656 -85.660156 104.636719 -46.914062 88.03125 -32.945312 C 77.488281 -37.953125 65.101562 -42.960938 45.863281 -46.386719 L 36.636719 -47.179688 C 41.644531 -67.738281 46.125 -110.171875 46.125 -120.1875 C 46.125 -123.878906 46.914062 -127.042969 46.386719 -129.941406 Z M 80.917969 -22.140625 C 64.839844 -2.371094 41.117188 17.921875 13.179688 17.921875 C 7.378906 17.921875 1.582031 17.132812 -4.480469 15.289062 C -18.976562 10.804688 -36.898438 -4.480469 -39.800781 -15.8125 C -40.589844 -36.371094 -20.296875 -42.960938 3.691406 -43.488281 L 11.597656 -42.960938 C 14.234375 -34.265625 18.449219 -24.25 23.722656 -23.457031 L 24.25 -23.457031 C 27.675781 -23.457031 28.730469 -31.628906 31.628906 -35.84375 C 32.683594 -35.320312 34 -37.691406 35.320312 -41.644531 C 47.441406 -40.589844 73.800781 -34 82.496094 -25.828125 C 81.445312 -24.511719 81.179688 -23.722656 80.917969 -22.140625 Z M 80.917969 -22.140625 "/></g></g></g><g fill="rgb(0%, 29.019165%, 67.83905%)" fill-opacity="0.4"><g transform="translate(207.289835, 246.623721)"><g><path d="M -4.480469 -85.398438 C -5.535156 -79.863281 -5.535156 -72.746094 -5.535156 -65.894531 L -5.535156 -52.714844 C -5.535156 -51.660156 -5.269531 -50.605469 -5.269531 -49.550781 C -3.691406 -34.265625 0.261719 -22.140625 8.433594 -9.226562 C 22.402344 8.433594 40.589844 18.449219 63.785156 18.449219 C 71.429688 17.921875 79.597656 17.132812 88.296875 12.652344 C 94.359375 10.804688 99.894531 7.644531 105.691406 3.953125 L 107.800781 0.789062 C 116.761719 -3.425781 122.824219 -8.171875 130.203125 -16.078125 C 130.730469 -17.394531 132.839844 -19.503906 133.628906 -20.03125 C 134.15625 -20.820312 134.683594 -21.613281 134.683594 -22.140625 C 139.957031 -26.882812 150.234375 -37.953125 152.609375 -45.070312 C 152.609375 -45.070312 153.136719 -45.863281 153.398438 -46.125 L 153.660156 -46.652344 L 153.660156 -46.914062 C 155.769531 -49.816406 158.40625 -56.929688 159.195312 -58.777344 L 161.832031 -62.730469 C 162.097656 -62.992188 162.097656 -62.992188 162.097656 -63.257812 C 162.886719 -64.046875 163.414062 -65.628906 164.203125 -67.472656 C 165.785156 -72.21875 165.523438 -73.800781 164.46875 -73.007812 C 164.203125 -73.800781 163.679688 -74.328125 162.625 -74.328125 C 160.515625 -74.328125 157.089844 -71.429688 156.296875 -64.574219 C 155.242188 -61.414062 148.652344 -55.085938 143.382812 -46.125 C 139.164062 -39.535156 130.730469 -28.992188 124.933594 -23.195312 C 117.554688 -16.605469 109.644531 -8.171875 98.839844 -5.007812 C 93.566406 -2.371094 86.714844 2.109375 80.917969 3.425781 C 76.4375 3.425781 70.902344 1.054688 67.210938 -1.316406 C 66.683594 -1.054688 65.628906 -1.582031 64.839844 -2.109375 C 45.597656 -5.269531 38.480469 -25.828125 37.164062 -42.960938 C 37.164062 -44.28125 37.164062 -45.335938 36.898438 -45.597656 C 35.84375 -50.871094 35.582031 -55.878906 35.84375 -61.148438 C 34.527344 -68.265625 36.636719 -72.21875 37.953125 -80.652344 C 39.007812 -85.132812 40.328125 -91.722656 41.644531 -99.101562 C 46.386719 -117.816406 52.976562 -136.53125 64.046875 -152.609375 C 64.574219 -154.1875 65.628906 -155.769531 65.894531 -157.089844 C 67.472656 -159.722656 69.582031 -162.359375 71.164062 -164.730469 C 73.007812 -166.3125 74.855469 -168.949219 76.4375 -171.585938 C 77.488281 -174.484375 78.808594 -177.382812 79.597656 -178.964844 C 81.707031 -181.335938 84.605469 -184.238281 87.503906 -186.871094 C 92.25 -190.035156 100.421875 -195.042969 105.957031 -195.042969 C 108.589844 -195.042969 114.125 -196.625 117.289062 -196.625 C 117.816406 -196.625 118.078125 -196.625 118.34375 -196.625 C 121.507812 -195.832031 119.398438 -189.507812 120.1875 -185.816406 C 120.980469 -183.710938 120.980469 -181.335938 120.453125 -178.703125 C 119.925781 -174.746094 120.1875 -173.695312 119.398438 -171.585938 C 119.660156 -171.320312 118.605469 -169.210938 119.398438 -169.210938 C 119.398438 -166.3125 119.925781 -163.679688 120.714844 -161.570312 C 120.980469 -159.460938 121.242188 -158.144531 121.769531 -158.144531 C 123.351562 -155.242188 127.570312 -149.707031 132.050781 -149.972656 C 132.839844 -150.5 139.691406 -152.082031 141.539062 -154.980469 C 141.011719 -155.769531 141.273438 -158.40625 142.328125 -161.304688 L 143.121094 -162.359375 C 146.808594 -167.367188 149.707031 -181.601562 149.707031 -187.925781 C 149.707031 -192.144531 148.917969 -195.832031 147.335938 -198.996094 C 143.382812 -205.847656 130.730469 -206.375 123.613281 -206.375 C 117.554688 -211.910156 107.011719 -213.230469 99.101562 -213.230469 C 95.941406 -213.230469 92.511719 -212.703125 89.613281 -211.910156 C 78.015625 -211.121094 62.992188 -206.902344 53.769531 -199.261719 C 36.371094 -190.5625 22.140625 -169.210938 14.234375 -152.082031 C 13.707031 -150.761719 13.441406 -149.445312 12.914062 -148.652344 C 6.324219 -136.265625 2.636719 -122.035156 1.054688 -111.753906 C 0 -107.800781 -1.582031 -103.054688 -2.371094 -98.839844 L -2.898438 -93.832031 Z M -4.480469 -85.398438 "/></g></g></g><g fill="rgb(100%, 100%, 100%)" fill-opacity="1"><g transform="translate(37.500002, 234.975356)"><g><path d="M 133.367188 -0.261719 C 134.15625 -0.261719 134.949219 -0.527344 135.210938 -0.527344 C 135.476562 -0.527344 136.53125 -5.269531 120.714844 -15.550781 L 135.738281 -37.164062 C 135.210938 -37.425781 135.476562 -37.691406 134.949219 -37.691406 C 145.753906 -53.503906 149.972656 -79.335938 149.972656 -99.101562 C 149.972656 -102.265625 149.972656 -105.429688 149.707031 -108.0625 C 149.179688 -112.019531 153.136719 -122.5625 150.5 -127.570312 C 143.382812 -141.273438 143.644531 -168.6875 116.234375 -177.382812 C 112.019531 -178.703125 107.800781 -179.226562 103.847656 -179.226562 C 78.542969 -179.226562 55.613281 -157.351562 44.28125 -144.171875 C 44.808594 -153.398438 47.707031 -163.414062 27.675781 -170.792969 C 25.828125 -171.320312 23.195312 -171.847656 20.820312 -171.847656 C 18.449219 -171.847656 16.339844 -171.320312 14.496094 -170.003906 L 12.914062 -152.609375 C 14.234375 -138.636719 11.070312 -121.769531 11.332031 -108.0625 L 11.070312 -95.941406 C 11.070312 -94.621094 10.804688 -94.09375 11.070312 -93.039062 L 11.597656 -84.078125 C 12.125 -76.4375 9.753906 -67.472656 9.753906 -57.195312 C 9.753906 -54.558594 10.015625 -51.921875 10.277344 -49.023438 L 10.277344 -48.761719 C 7.644531 -48.761719 4.746094 -49.023438 2.109375 -49.023438 C -20.820312 -49.023438 -39.800781 -44.28125 -44.808594 -26.882812 C -47.179688 -25.566406 -47.96875 -22.929688 -47.707031 -20.03125 C -45.070312 8.433594 -1.582031 27.675781 24.777344 27.675781 C 36.109375 27.675781 45.335938 25.039062 59.304688 23.457031 C 76.960938 21.875 102.003906 5.796875 113.335938 -8.433594 C 113.597656 -8.699219 113.863281 -8.960938 114.125 -8.960938 C 114.652344 -8.960938 115.179688 -8.699219 115.972656 -8.433594 C 119.660156 -7.378906 126.25 -1.84375 129.941406 -0.789062 C 130.730469 -0.527344 132.3125 -0.261719 133.367188 -0.261719 Z M 45.863281 -132.839844 C 48.761719 -141.273438 69.054688 -158.933594 85.660156 -164.730469 C 85.925781 -164.996094 86.453125 -164.996094 86.980469 -164.996094 C 94.621094 -164.996094 113.070312 -148.128906 113.863281 -140.484375 L 113.863281 -136.003906 C 114.125 -132.578125 115.445312 -128.359375 115.707031 -124.140625 C 115.972656 -121.242188 115.972656 -118.34375 115.972656 -115.445312 C 115.972656 -85.660156 104.636719 -46.914062 88.03125 -32.945312 C 77.488281 -37.953125 65.101562 -42.960938 45.863281 -46.386719 L 36.636719 -47.179688 C 41.644531 -67.738281 46.125 -110.171875 46.125 -120.1875 C 46.125 -123.878906 46.914062 -127.042969 46.386719 -129.941406 Z M 80.917969 -22.140625 C 64.839844 -2.371094 41.117188 17.921875 13.179688 17.921875 C 7.378906 17.921875 1.582031 17.132812 -4.480469 15.289062 C -18.976562 10.804688 -36.898438 -4.480469 -39.800781 -15.8125 C -40.589844 -36.371094 -20.296875 -42.960938 3.691406 -43.488281 L 11.597656 -42.960938 C 14.234375 -34.265625 18.449219 -24.25 23.722656 -23.457031 L 24.25 -23.457031 C 27.675781 -23.457031 28.730469 -31.628906 31.628906 -35.84375 C 32.683594 -35.320312 34 -37.691406 35.320312 -41.644531 C 47.441406 -40.589844 73.800781 -34 82.496094 -25.828125 C 81.445312 -24.511719 81.179688 -23.722656 80.917969 -22.140625 Z M 80.917969 -22.140625 "/></g></g></g><g fill="rgb(100%, 100%, 100%)" fill-opacity="1"><g transform="translate(195.641467, 234.975356)"><g><path d="M -4.480469 -85.398438 C -5.535156 -79.863281 -5.535156 -72.746094 -5.535156 -65.894531 L -5.535156 -52.714844 C -5.535156 -51.660156 -5.269531 -50.605469 -5.269531 -49.550781 C -3.691406 -34.265625 0.261719 -22.140625 8.433594 -9.226562 C 22.402344 8.433594 40.589844 18.449219 63.785156 18.449219 C 71.429688 17.921875 79.597656 17.132812 88.296875 12.652344 C 94.359375 10.804688 99.894531 7.644531 105.691406 3.953125 L 107.800781 0.789062 C 116.761719 -3.425781 122.824219 -8.171875 130.203125 -16.078125 C 130.730469 -17.394531 132.839844 -19.503906 133.628906 -20.03125 C 134.15625 -20.820312 134.683594 -21.613281 134.683594 -22.140625 C 139.957031 -26.882812 150.234375 -37.953125 152.609375 -45.070312 C 152.609375 -45.070312 153.136719 -45.863281 153.398438 -46.125 L 153.660156 -46.652344 L 153.660156 -46.914062 C 155.769531 -49.816406 158.40625 -56.929688 159.195312 -58.777344 L 161.832031 -62.730469 C 162.097656 -62.992188 162.097656 -62.992188 162.097656 -63.257812 C 162.886719 -64.046875 163.414062 -65.628906 164.203125 -67.472656 C 165.785156 -72.21875 165.523438 -73.800781 164.46875 -73.007812 C 164.203125 -73.800781 163.679688 -74.328125 162.625 -74.328125 C 160.515625 -74.328125 157.089844 -71.429688 156.296875 -64.574219 C 155.242188 -61.414062 148.652344 -55.085938 143.382812 -46.125 C 139.164062 -39.535156 130.730469 -28.992188 124.933594 -23.195312 C 117.554688 -16.605469 109.644531 -8.171875 98.839844 -5.007812 C 93.566406 -2.371094 86.714844 2.109375 80.917969 3.425781 C 76.4375 3.425781 70.902344 1.054688 67.210938 -1.316406 C 66.683594 -1.054688 65.628906 -1.582031 64.839844 -2.109375 C 45.597656 -5.269531 38.480469 -25.828125 37.164062 -42.960938 C 37.164062 -44.28125 37.164062 -45.335938 36.898438 -45.597656 C 35.84375 -50.871094 35.582031 -55.878906 35.84375 -61.148438 C 34.527344 -68.265625 36.636719 -72.21875 37.953125 -80.652344 C 39.007812 -85.132812 40.328125 -91.722656 41.644531 -99.101562 C 46.386719 -117.816406 52.976562 -136.53125 64.046875 -152.609375 C 64.574219 -154.1875 65.628906 -155.769531 65.894531 -157.089844 C 67.472656 -159.722656 69.582031 -162.359375 71.164062 -164.730469 C 73.007812 -166.3125 74.855469 -168.949219 76.4375 -171.585938 C 77.488281 -174.484375 78.808594 -177.382812 79.597656 -178.964844 C 81.707031 -181.335938 84.605469 -184.238281 87.503906 -186.871094 C 92.25 -190.035156 100.421875 -195.042969 105.957031 -195.042969 C 108.589844 -195.042969 114.125 -196.625 117.289062 -196.625 C 117.816406 -196.625 118.078125 -196.625 118.34375 -196.625 C 121.507812 -195.832031 119.398438 -189.507812 120.1875 -185.816406 C 120.980469 -183.710938 120.980469 -181.335938 120.453125 -178.703125 C 119.925781 -174.746094 120.1875 -173.695312 119.398438 -171.585938 C 119.660156 -171.320312 118.605469 -169.210938 119.398438 -169.210938 C 119.398438 -166.3125 119.925781 -163.679688 120.714844 -161.570312 C 120.980469 -159.460938 121.242188 -158.144531 121.769531 -158.144531 C 123.351562 -155.242188 127.570312 -149.707031 132.050781 -149.972656 C 132.839844 -150.5 139.691406 -152.082031 141.539062 -154.980469 C 141.011719 -155.769531 141.273438 -158.40625 142.328125 -161.304688 L 143.121094 -162.359375 C 146.808594 -167.367188 149.707031 -181.601562 149.707031 -187.925781 C 149.707031 -192.144531 148.917969 -195.832031 147.335938 -198.996094 C 143.382812 -205.847656 130.730469 -206.375 123.613281 -206.375 C 117.554688 -211.910156 107.011719 -213.230469 99.101562 -213.230469 C 95.941406 -213.230469 92.511719 -212.703125 89.613281 -211.910156 C 78.015625 -211.121094 62.992188 -206.902344 53.769531 -199.261719 C 36.371094 -190.5625 22.140625 -169.210938 14.234375 -152.082031 C 13.707031 -150.761719 13.441406 -149.445312 12.914062 -148.652344 C 6.324219 -136.265625 2.636719 -122.035156 1.054688 -111.753906 C 0 -107.800781 -1.582031 -103.054688 -2.371094 -98.839844 L -2.898438 -93.832031 Z M -4.480469 -85.398438 "/></g></g></g></svg>