<svg xmlns="http://www.w3.org/2000/svg" xmlns:xlink="http://www.w3.org/1999/xlink" width="500" zoomAndPan="magnify" viewBox="0 0 375 374.999991" height="500" preserveAspectRatio="xMidYMid meet" version="1.0"><defs><g/><clipPath id="id1"><path d="M 82 161 L 293.488281 161 L 293.488281 286 L 82 286 Z M 82 161 " clip-rule="nonzero"/></clipPath><clipPath id="id2"><path d="M 197 161 L 293.488281 161 L 293.488281 210 L 197 210 Z M 197 161 " clip-rule="nonzero"/></clipPath></defs><g clip-path="url(#id1)"><path fill="rgb(94.509888%, 94.509888%, 94.898987%)" d="M 213.320312 162.882812 C 213.320312 162.882812 200.152344 157.789062 198.402344 167.71875 C 196.65625 177.644531 198.148438 183.210938 201.175781 185.734375 C 204.199219 188.257812 208.503906 189.542969 208.25 184.964844 C 207.992188 180.382812 207.480469 174.050781 211.53125 175.078125 C 215.582031 176.105469 240.597656 188.300781 240.597656 188.300781 L 257.433594 209.910156 L 170.273438 245.214844 L 93.726562 198.402344 C 92.019531 197.375 90.058594 196.816406 88.058594 197.03125 C 85.074219 197.289062 81.492188 201.480469 82.386719 208.882812 C 83.921875 221.59375 88.101562 226.472656 89.847656 226.472656 C 93.46875 226.472656 93.382812 222.835938 92.617188 219.796875 C 91.851562 216.757812 92.363281 212.691406 93.382812 213.207031 C 94.40625 213.71875 120.195312 229.726562 120.195312 229.726562 L 142.441406 261.21875 L 171.722656 280.007812 C 172.320312 281.035156 173.554688 281.632812 174.792969 281.203125 C 176.878906 280.519531 179.140625 281.332031 180.289062 283.214844 L 180.375 283.386719 C 181.527344 285.269531 183.871094 286.039062 185.875 285.183594 L 215.496094 272.945312 C 222.65625 269.734375 222.273438 265.882812 225.9375 258.910156 L 232.628906 246.242188 C 233.480469 244.660156 234.886719 243.417969 236.636719 242.863281 L 237.957031 242.433594 C 239.789062 241.835938 241.792969 242.519531 242.902344 244.144531 L 247.121094 250.394531 C 248.867188 253.003906 252.277344 253.988281 255.132812 252.703125 L 278.832031 242.304688 C 281.175781 241.277344 282.878906 239.226562 283.433594 236.742188 L 283.5625 236.1875 C 284.285156 233.105469 286.332031 230.582031 289.1875 229.253906 C 290.550781 228.613281 291.402344 227.328125 291.488281 225.832031 L 293.109375 195.492188 Z M 213.320312 162.882812 " fill-opacity="1" fill-rule="nonzero"/></g><path fill="rgb(33.329773%, 68.238831%, 87.449646%)" d="M 217.539062 261.09375 L 187.195312 274.914062 C 184.425781 276.15625 181.3125 274.144531 181.3125 271.105469 L 181.3125 255.101562 C 181.3125 250.992188 183.785156 247.269531 187.535156 245.6875 L 218.179688 232.675781 C 220.90625 231.523438 223.976562 233.535156 223.976562 236.527344 L 223.976562 251.035156 C 224.019531 255.359375 221.503906 259.292969 217.539062 261.09375 Z M 217.539062 261.09375 " fill-opacity="1" fill-rule="nonzero"/><path fill="rgb(89.408875%, 24.708557%, 19.60907%)" d="M 278.832031 233.019531 L 255.003906 244.144531 C 252.53125 245.300781 249.675781 243.460938 249.675781 240.722656 L 249.675781 228.011719 C 249.675781 222.578125 253 217.65625 258.03125 215.644531 L 281.558594 206.316406 C 283.390625 205.589844 285.394531 207 285.308594 208.96875 L 284.796875 223.992188 C 284.625 227.925781 282.324219 231.394531 278.832031 233.019531 Z M 278.832031 233.019531 " fill-opacity="1" fill-rule="nonzero"/><g clip-path="url(#id2)"><path fill="rgb(57.649231%, 57.249451%, 57.249451%)" d="M 293.234375 195.40625 L 213.320312 162.882812 C 213.320312 162.882812 200.152344 157.789062 198.402344 167.71875 C 196.65625 177.644531 198.148438 183.210938 201.175781 185.734375 C 204.199219 188.257812 208.503906 189.542969 208.25 184.964844 C 207.992188 180.382812 207.480469 174.050781 211.53125 175.078125 C 215.582031 176.105469 240.597656 188.300781 240.597656 188.300781 L 257.433594 209.910156 Z M 293.234375 195.40625 " fill-opacity="0.2" fill-rule="nonzero"/></g><path fill="rgb(57.649231%, 57.249451%, 57.249451%)" d="M 170.316406 245.171875 L 93.726562 198.402344 C 92.019531 197.375 90.058594 196.816406 88.058594 197.03125 C 85.074219 197.289062 81.492188 201.480469 82.386719 208.882812 C 83.921875 221.59375 88.101562 226.472656 89.847656 226.472656 C 93.46875 226.472656 93.382812 222.835938 92.617188 219.796875 C 91.851562 216.757812 92.363281 212.691406 93.382812 213.207031 C 94.40625 213.71875 120.195312 229.726562 120.195312 229.726562 L 142.441406 261.21875 L 171.722656 280.007812 Z M 170.316406 245.171875 " fill-opacity="0.1765" fill-rule="nonzero"/><g fill="rgb(0%, 29.019165%, 67.83905%)" fill-opacity="1"><g transform="translate(69.50533, 213.438078)"><g><path d="M 18.902344 -32.832031 C 19.015625 -33.027344 19.0625 -33.261719 19.101562 -33.324219 C 19.140625 -33.390625 18.121094 -34.324219 13.34375 -31.898438 L 10.167969 -38.664062 C 10.027344 -38.574219 10 -38.675781 9.925781 -38.546875 C 7.574219 -43.453125 1.820312 -48.164062 -3.039062 -50.972656 C -3.816406 -51.425781 -4.59375 -51.875 -5.28125 -52.183594 C -6.328125 -52.617188 -8.359375 -55.089844 -9.964844 -55.152344 C -14.347656 -55.351562 -21.050781 -59.316406 -27.089844 -53.8125 C -28.011719 -52.960938 -28.742188 -52 -29.304688 -51.027344 C -32.902344 -44.804688 -30.785156 -36.054688 -29.15625 -31.394531 C -31.347656 -32.835938 -33.398438 -34.972656 -38.0625 -31.097656 C -38.457031 -30.71875 -38.960938 -30.144531 -39.296875 -29.5625 C -39.636719 -28.980469 -39.804688 -28.386719 -39.742188 -27.746094 L -35.691406 -24.882812 C -32.066406 -23.21875 -28.371094 -20.042969 -24.960938 -18.15625 L -22.019531 -16.367188 C -21.695312 -16.179688 -21.601562 -16.039062 -21.304688 -15.957031 L -19.027344 -14.808594 C -17.070312 -13.851562 -15.207031 -11.996094 -12.675781 -10.53125 C -12.03125 -10.15625 -11.34375 -9.847656 -10.59375 -9.5 L -10.527344 -9.464844 C -10.902344 -8.816406 -11.378906 -8.140625 -11.753906 -7.492188 C -15.015625 -1.851562 -16.550781 3.488281 -12.984375 7.195312 C -12.996094 7.964844 -12.460938 8.535156 -11.710938 8.882812 C -4.335938 12.28125 6.582031 4.324219 10.328125 -2.15625 C 11.941406 -4.945312 12.605469 -7.585938 14.203125 -11.246094 C 16.324219 -15.8125 15.933594 -24.257812 14.046875 -29.070312 C 14.019531 -29.171875 13.992188 -29.273438 14.027344 -29.339844 C 14.101562 -29.46875 14.242188 -29.5625 14.421875 -29.71875 C 15.203125 -30.476562 17.503906 -31.308594 18.285156 -32.066406 C 18.464844 -32.222656 18.753906 -32.574219 18.902344 -32.832031 Z M -26.144531 -30.171875 C -27.804688 -32.082031 -29.261719 -39.585938 -28.324219 -44.496094 C -28.351562 -44.597656 -28.277344 -44.726562 -28.203125 -44.855469 C -27.117188 -46.734375 -20.34375 -48.875 -18.351562 -47.980469 L -17.25 -47.34375 C -16.371094 -46.921875 -15.144531 -46.644531 -14.070312 -46.109375 C -13.320312 -45.761719 -12.605469 -45.351562 -11.894531 -44.9375 C -4.570312 -40.703125 3.34375 -32.402344 4.417969 -26.332031 C 1.6875 -24.453125 -1.304688 -22.121094 -4.882812 -17.875 L -6.390625 -15.71875 C -10.734375 -19.875 -20.53125 -27.011719 -22.996094 -28.4375 C -23.902344 -28.960938 -24.566406 -29.605469 -25.355469 -29.886719 Z M 6.0625 -23.046875 C 8.636719 -16.28125 10.253906 -7.5625 6.28125 -0.691406 C 5.457031 0.734375 4.4375 2.046875 3.121094 3.277344 C -0.0429688 6.203125 -6.351562 8.4375 -9.550781 7.539062 C -14.71875 4.808594 -13.453125 -1.121094 -10.167969 -7.09375 L -8.914062 -8.960938 C -6.402344 -8.375 -3.339844 -7.984375 -2.394531 -9.167969 L -2.320312 -9.300781 C -1.832031 -10.140625 -3.691406 -11.5625 -4.316406 -12.875 C -4.035156 -13.058594 -4.433594 -13.722656 -5.21875 -14.609375 C -3.234375 -17.441406 2.136719 -22.984375 5.382812 -23.960938 C 5.554688 -23.515625 5.710938 -23.335938 6.0625 -23.046875 Z M 6.0625 -23.046875 "/></g></g></g><g fill="rgb(0%, 29.019165%, 67.83905%)" fill-opacity="1"><g transform="translate(91.742667, 178.299141)"><g><path d="M -10.382812 -33.320312 C -10.59375 -33.109375 -10.855469 -32.84375 -11.015625 -32.472656 C -11.121094 -32.472656 -11.171875 -32.417969 -11.277344 -32.3125 C -11.488281 -32.097656 -11.648438 -31.621094 -11.804688 -31.25 C -11.910156 -30.828125 -12.015625 -30.507812 -12.171875 -30.351562 L -12.542969 -29.976562 C -12.699219 -29.820312 -12.910156 -29.710938 -13.070312 -29.550781 C -13.4375 -29.179688 -13.808594 -28.597656 -13.859375 -27.695312 L -13.910156 -27.21875 L -13.960938 -27.273438 C -14.066406 -27.0625 -14.066406 -26.847656 -14.066406 -26.53125 C -14.167969 -25.367188 -14.109375 -24.042969 -14 -22.773438 L -13.941406 -21.34375 C -14.097656 -20.441406 -13.507812 -18.273438 -13.1875 -16.898438 L -13.078125 -16.371094 L -12.4375 -14.996094 C -11.902344 -13.410156 -11.261719 -11.820312 -10.359375 -10.394531 C -10.253906 -10.289062 -10.144531 -10.078125 -10.039062 -9.972656 C -10.039062 -9.867188 -9.933594 -9.761719 -9.878906 -9.707031 C -8.921875 -8.441406 -7.914062 -7.121094 -6.796875 -6.011719 C -6.691406 -6.011719 -6 -5.222656 -5.203125 -4.429688 C -4.460938 -3.585938 -3.664062 -2.792969 -3.664062 -2.792969 C -3.238281 -2.371094 -2.546875 -2.109375 -1.859375 -1.953125 L -1.914062 -1.898438 C 0.792969 0.0507812 3.070312 -0.222656 4.390625 -0.808594 L 4.496094 -0.808594 C 6.507812 -1.238281 8.671875 -2.886719 10.097656 -4.320312 C 11.734375 -5.96875 11.992188 -7.71875 12.460938 -9.996094 L 12.980469 -12.75 C 13.292969 -14.339844 13.179688 -16.667969 13.015625 -18.308594 L 13.015625 -18.519531 C 12.640625 -19.84375 12.738281 -21.75 12.523438 -23.230469 L 12.199219 -25.664062 L 11.878906 -26.300781 C 11.824219 -26.457031 11.824219 -26.566406 11.71875 -26.671875 L 11.558594 -27.359375 C 11.394531 -28.785156 11.070312 -30.375 10.75 -31.21875 C 10.53125 -32.914062 10.371094 -34.128906 9.730469 -34.65625 C 9.414062 -34.867188 9.308594 -34.972656 9.203125 -34.867188 C 9.203125 -34.867188 9.203125 -34.761719 9.148438 -34.601562 L 9.097656 -34.65625 L 8.9375 -34.285156 C 8.832031 -34.179688 8.675781 -33.914062 8.625 -33.648438 C 8.308594 -33.011719 9.058594 -30.15625 9.703125 -27.511719 C 10.078125 -26.082031 10.085938 -24.386719 10.246094 -23.488281 C 10.351562 -23.066406 10.460938 -22.429688 10.621094 -21.953125 C 11.4375 -15.128906 9.710938 -8.925781 8.183594 -7.386719 C 7.285156 -6.484375 5.910156 -5.84375 5.273438 -6.371094 C 4.582031 -6.949219 3.46875 -7.847656 2.457031 -8.851562 C 1.183594 -10.117188 0.015625 -11.488281 -0.09375 -12.546875 L 0.585938 -14.507812 C 0.902344 -15.355469 1.3125 -19.277344 1.253906 -20.707031 C 1.460938 -22.402344 1.453125 -24.199219 1.183594 -25.839844 L 1.234375 -26.316406 C 1.125 -27.90625 0.265625 -30.972656 -0.105469 -31.554688 C -0.53125 -32.71875 -1.171875 -33.667969 -1.914062 -34.40625 C -6 -37.519531 -9.800781 -33.90625 -10.382812 -33.320312 Z M -4.324219 -26.351562 C -4.59375 -28.203125 -4.652344 -30.269531 -4.339844 -30.800781 C -4.019531 -30.90625 -3.648438 -30.855469 -3.386719 -30.910156 C -1.578125 -28.902344 -0.769531 -24.828125 -0.808594 -20.644531 L -1.015625 -18.527344 C -1.066406 -17.839844 -1.117188 -17.042969 -1.324219 -16.410156 C -2.070312 -17.78125 -3.246094 -21.167969 -4 -24.765625 C -4.054688 -24.816406 -4.054688 -25.027344 -4.105469 -25.082031 C -4.265625 -25.347656 -4.320312 -25.714844 -4.375 -25.875 Z M -4.324219 -26.351562 "/></g></g></g><g fill="rgb(0%, 29.019165%, 67.83905%)" fill-opacity="1"><g transform="translate(106.612726, 161.50837)"><g><path d="M -0.730469 -19.3125 C -1.398438 -20.308594 -2.019531 -21.242188 -2.539062 -22.425781 C -2.894531 -23.089844 -3.203125 -23.695312 -3.496094 -24.128906 C -3.992188 -24.878906 -4.511719 -25.25 -5.15625 -25 C -5.425781 -25.542969 -5.800781 -26.101562 -6.152344 -26.496094 C -8.273438 -29.132812 -11.511719 -28.59375 -13.007812 -27.59375 C -13.441406 -27.304688 -15.042969 -26.058594 -14.917969 -25.601562 C -14.625 -24.894531 -14.832031 -21.425781 -14.832031 -21.425781 C -14.667969 -21.179688 -14.460938 -21.136719 -14.273438 -20.992188 L -14.3125 -21.054688 L -12.652344 -20.183594 C -12.113281 -19.371094 -11.40625 -18.3125 -10.84375 -17.605469 C -10.304688 -16.796875 -9.703125 -16.027344 -9.203125 -15.28125 C -8.496094 -14.222656 -7.894531 -13.183594 -7.417969 -12.0625 C -6.460938 -10.902344 -5.777344 -10.007812 -5.234375 -9.199219 C -4.863281 -8.636719 -4.34375 -7.722656 -4.050781 -7.289062 L -3.011719 -5.730469 C -1.101562 -3.40625 3.945312 -1.640625 6.625 -3.429688 C 7.496094 -4.011719 7.808594 -4.757812 8.203125 -5.378906 L 8.472656 -5.921875 C 7.765625 -5.898438 9.132812 -9.785156 10.464844 -12.917969 C 11.105469 -14.519531 10.980469 -14.976562 10.898438 -15.371094 C 10.835938 -15.597656 11.3125 -16.90625 11.4375 -17.261719 C 12.410156 -25.648438 12.535156 -37.070312 9.769531 -41.078125 C 9.167969 -41.847656 8.566406 -42.34375 8.003906 -42.78125 C 7.402344 -43.277344 6.839844 -43.714844 6.445312 -44.171875 L 5.988281 -44.855469 C 4.371094 -45.667969 2.957031 -46.164062 2.398438 -45.789062 C 2.023438 -45.542969 2.105469 -44.875 2.769531 -43.878906 C 2.9375 -43.632812 3.226562 -43.195312 3.5 -42.925781 C 4.058594 -41.949219 5.785156 -38.960938 5.867188 -38.292969 C 9.960938 -30.945312 10.003906 -15.496094 7.097656 -9.867188 C 6.871094 -9.804688 5.875 -9.949219 5.582031 -10.113281 L 2.714844 -14.414062 C 0.429688 -17.839844 -0.378906 -18.917969 -0.730469 -19.3125 Z M -0.730469 -19.3125 "/></g></g></g><g fill="rgb(0%, 29.019165%, 67.83905%)" fill-opacity="1"><g transform="translate(129.320559, 146.304274)"><g><path d="M -0.589844 -26.292969 C -0.285156 -25.929688 -0.0351562 -25.707031 0.0625 -25.667969 C 0.8125 -25 1.257812 -24.289062 1.675781 -23.648438 C 2.203125 -23.136719 2.464844 -22.675781 2.660156 -22.191406 C 2.953125 -21.660156 3.175781 -21.105469 3.675781 -20.660156 L 4.507812 -17.363281 C 5.09375 -16.710938 5.164062 -15.933594 5.273438 -15.25 C 5.300781 -14.777344 5.398438 -14.332031 5.539062 -13.984375 C 5.71875 -13.734375 5.71875 -13.332031 5.691406 -13 C 5.71875 -12.929688 5.703125 -12.761719 5.730469 -12.691406 C 5.855469 -12.179688 5.785156 -11.746094 5.523438 -11.398438 C 5.257812 -11.457031 4.980469 -11.34375 4.5625 -11.175781 C 2.964844 -10.539062 0.308594 -8.507812 -0.414062 -7.089844 C -1.320312 -5.921875 -1.792969 -4.28125 -1.082031 -3.113281 C -0.347656 -1.878906 0.875 -1.238281 2.210938 -1.125 L 2.308594 -1.082031 C 3.851562 -1.054688 5.226562 -1.042969 6.0625 -1.375 L 6.269531 -1.457031 C 6.4375 -1.445312 6.535156 -1.402344 6.675781 -1.457031 C 7.4375 -1.359375 8.257812 -1.527344 8.953125 -1.804688 C 10.109375 -2.347656 12.332031 -4.042969 12.847656 -4.972656 L 13.308594 -5.640625 C 13.753906 -6.140625 14.238281 -6.738281 14.378906 -7.199219 C 14.519531 -8.464844 14.851562 -10.855469 14.199219 -12.691406 L 14.964844 -12.996094 C 15.214844 -13.175781 15.589844 -13.648438 15.8125 -13.898438 C 16.453125 -14.316406 17.078125 -14.96875 17.523438 -15.472656 L 17.925781 -15.875 C 19.484375 -17.625 20.402344 -19.363281 21.027344 -20.824219 L 21.140625 -21.753906 C 21.777344 -23.382812 21.945312 -24.980469 22.167969 -26.441406 C 22.449219 -27.355469 22.640625 -28.082031 22.503906 -28.429688 C 22.351562 -29.414062 21.808594 -29.761719 21.253906 -29.539062 C 20.972656 -29.429688 20.75 -29.179688 20.585938 -28.789062 C 20.292969 -25.285156 19.207031 -21.546875 17.246094 -18.585938 L 17.09375 -18.363281 L 17.160156 -18.390625 C 16.773438 -17.75 16.175781 -17.027344 15.421875 -16.484375 L 14.15625 -15.414062 C 14.003906 -16 14.101562 -16.765625 14.253906 -17.390625 C 14.410156 -18.015625 14.519531 -18.542969 14.421875 -18.988281 C 14.492188 -19.421875 14.226562 -19.878906 13.8125 -20.519531 C 13.628906 -20.769531 13.421875 -21.089844 13.3125 -21.367188 L 12.824219 -21.980469 C 12.726562 -22.019531 12.6875 -22.328125 12.726562 -22.425781 C 12.726562 -22.828125 12.878906 -23.050781 12.324219 -23.230469 L 10.726562 -25.011719 L 9.488281 -25.484375 C 8.472656 -26.609375 4.691406 -30.421875 3.386719 -31.269531 C 3.414062 -32.003906 3.636719 -33.0625 3.886719 -34.050781 C 4.332031 -35.757812 4.75 -37.539062 4.222656 -38.457031 C 3.984375 -38.847656 3.707031 -39.136719 3.527344 -39.390625 L 2.984375 -40.140625 C 2.207031 -41.28125 0.859375 -42.03125 -0.363281 -42.671875 C -1.214844 -42.976562 -1.878906 -43.03125 -2.476562 -43.117188 L -2.839844 -43.214844 C -3.296875 -43.351562 -3.632812 -43.382812 -3.910156 -43.269531 C -4.328125 -43.101562 -4.648438 -42.492188 -5.191406 -41.226562 L -5.355469 -40.835938 C -5.371094 -40.265625 -5.609375 -39.445312 -5.800781 -38.722656 C -6.191406 -37.679688 -6.527344 -36.5 -6.429688 -35.652344 L -2.898438 -28.03125 C -2.84375 -26.277344 -3.761719 -17.6875 -3.929688 -16.492188 C -4.054688 -14.988281 -3.390625 -13.320312 -2.972656 -13.488281 C -2.902344 -13.515625 -2.859375 -13.613281 -2.820312 -13.710938 C -2.011719 -16.128906 -1.648438 -19.660156 -1.300781 -22.21875 C -0.980469 -24.441406 -0.84375 -26.113281 -0.589844 -26.292969 Z M 1.183594 -4.101562 C 1.613281 -6.449219 5.746094 -9.230469 5.96875 -9.078125 C 6.398438 -6.992188 5.480469 -4.449219 3.394531 -3.613281 C 2.421875 -3.226562 1.265625 -3.488281 1.183594 -4.101562 Z M 1.183594 -4.101562 "/></g></g></g><g fill="rgb(0%, 29.019165%, 67.83905%)" fill-opacity="1"><g transform="translate(175.876258, 132.607055)"><g><path d="M 19 -33.394531 C 18.097656 -32.949219 18.171875 -32.949219 17.796875 -32.652344 L 16.972656 -32.128906 C 16.75 -32.65625 16.003906 -33.480469 14.28125 -33.488281 C 10.089844 -33.503906 3.769531 -26.191406 0.972656 -18.789062 C 0.140625 -16.472656 -0.246094 -13.328125 -0.105469 -11.53125 C 0.394531 -4.941406 5.390625 0.0976562 11.601562 0.644531 C 14.296875 0.65625 17.222656 -0.53125 20.53125 -4.1875 C 21.359375 -5.53125 21.964844 -6.652344 23.09375 -7.921875 L 23.84375 -8.816406 L 24.75 -10.085938 C 25.050781 -10.535156 25.425781 -10.980469 25.875 -11.503906 L 26.554688 -12.699219 L 26.554688 -12.625 C 30.089844 -17.105469 31.226562 -20.242188 31.230469 -20.769531 C 31.15625 -21.292969 30.785156 -21.59375 30.257812 -21.59375 C 29.210938 -21.597656 27.703125 -19.132812 26.496094 -16.894531 C 25.894531 -15.773438 25.289062 -14.652344 24.539062 -13.679688 L 23.710938 -12.5625 C 20.621094 -8.230469 16.40625 -2.632812 14.085938 -2.640625 C 13.9375 -2.640625 13.789062 -2.640625 13.488281 -2.792969 C 13.113281 -2.496094 12.8125 -2.421875 12.589844 -2.421875 C 10.191406 -2.429688 9.082031 -5.355469 8.792969 -8.203125 C 8.652344 -10.972656 9.335938 -13.589844 10.320312 -15.832031 L 12.433594 -20.390625 C 12.960938 -21.511719 13.339844 -22.335938 13.792969 -23.007812 L 14.09375 -24.054688 L 14.625 -25.101562 C 14.992188 -23.828125 15.957031 -21.128906 18.277344 -21.117188 C 18.949219 -21.117188 19.699219 -21.113281 19.628906 -21.9375 C 19.484375 -23.585938 19.9375 -24.257812 20.390625 -25.003906 C 20.839844 -25.898438 21.371094 -26.796875 21.226562 -29.042969 C 20.863281 -31.816406 19.296875 -33.394531 19 -33.394531 Z M 19 -33.394531 "/></g></g></g><g fill="rgb(0%, 29.019165%, 67.83905%)" fill-opacity="1"><g transform="translate(197.530725, 132.765143)"><g><path d="M 20.484375 -7.195312 L 20.496094 -7.265625 L 20.8125 -7.824219 L 20.800781 -7.75 C 22.460938 -9.609375 23.886719 -11.425781 25.109375 -12.898438 L 25.867188 -13.839844 C 26.160156 -14.25 26.527344 -14.644531 26.792969 -14.90625 L 26.804688 -14.980469 C 26.976562 -15.105469 27 -15.25 26.949219 -15.410156 C 27.472656 -16.3125 27.175781 -16.816406 26.65625 -16.898438 C 26.289062 -16.957031 25.894531 -16.867188 25.464844 -16.558594 C 22.929688 -13.019531 18.753906 -8.226562 15.582031 -5.472656 L 14.972656 -4.964844 C 14.101562 -4.269531 13.148438 -3.511719 12.175781 -3.136719 C 10.828125 -2.289062 9.75 -1.703125 9.195312 -1.566406 C 8.628906 -1.808594 8.332031 -2.308594 8.414062 -2.828125 C 8.519531 -3.492188 9.019531 -4.246094 9.691406 -5.125 L 10.03125 -5.375 C 10.375 -5.621094 10.386719 -5.695312 10.347656 -5.929688 L 10.285156 -6.015625 C 10.953125 -7.804688 11.875 -9.78125 12.929688 -11.660156 L 13.003906 -12.101562 C 13.199219 -12.375 13.5 -12.859375 13.621094 -13.140625 C 14.132812 -13.96875 14.753906 -15.007812 15.3125 -16.132812 C 15.285156 -16.441406 15.332031 -16.734375 15.382812 -17.03125 C 15.417969 -17.253906 15.488281 -17.695312 15.449219 -17.929688 C 15.484375 -18.152344 15.542969 -18.523438 15.503906 -18.753906 L 15.464844 -18.988281 C 15.390625 -19 15.402344 -19.074219 15.414062 -19.148438 L 15.660156 -19.714844 C 16.109375 -20.628906 16.421875 -21.640625 16.464844 -22.394531 C 16.507812 -25.039062 15.316406 -28.492188 12.359375 -28.960938 C 11.914062 -29.035156 11.53125 -29.019531 11.203125 -28.84375 C 10.414062 -28.667969 9.839844 -27.925781 9.441406 -26.851562 L 9.371094 -26.40625 C 8.460938 -24.503906 7.230469 -22.503906 6.003906 -20.5 L 4.21875 -16.917969 C 3.5625 -15.203125 3.019531 -13.695312 2.5625 -12.253906 L 2.351562 -10.921875 C 2.28125 -10.480469 2.132812 -10.046875 2.0625 -9.601562 C 1.414062 -5.535156 2.148438 -0.640625 6.519531 0.964844 C 7.628906 1.140625 8.601562 1.222656 9.71875 0.867188 L 9.707031 0.941406 C 10.652344 0.714844 11.644531 0.191406 12.789062 -0.308594 L 12.714844 -0.320312 L 13.117188 -0.484375 C 13.878906 -0.96875 14.675781 -1.675781 15.457031 -2.308594 L 16.242188 -2.941406 C 17.625 -4.011719 18.808594 -5.261719 19.910156 -6.449219 Z M 25 -39.757812 C 25.453125 -40.21875 25.757812 -40.699219 26.035156 -41.035156 L 25.964844 -41.046875 C 26.5 -41.566406 26.890625 -42.109375 26.945312 -42.9375 C 26.871094 -43.402344 26.582031 -43.980469 26.199219 -44.421875 C 25.105469 -45.65625 23.019531 -46.824219 21.972656 -46.914062 C 20.863281 -47.089844 19.511719 -46.699219 18.324219 -45.90625 C 17.476562 -45.355469 16.792969 -44.40625 16.621094 -42.839844 C 16.300781 -40.84375 16.980469 -38.917969 17.871094 -37.863281 C 18.738281 -37.117188 19.714844 -36.582031 20.664062 -36.355469 C 21.847656 -36.167969 22.203125 -36.488281 23.875 -38.421875 Z M 25 -39.757812 "/></g></g></g><g fill="rgb(0%, 29.019165%, 67.83905%)" fill-opacity="1"><g transform="translate(213.52358, 134.584872)"><g><path d="M 9.183594 -19.292969 C 9.132812 -19.152344 9.082031 -19.011719 9.101562 -18.847656 L 9.121094 -18.679688 L 6.214844 -15.03125 L 5.859375 -14.046875 C 5.808594 -13.90625 5.828125 -13.738281 5.800781 -13.667969 C 5.75 -13.527344 5.796875 -13.429688 5.746094 -13.289062 C 4.816406 -12.035156 3.929688 -10.679688 3.304688 -9.394531 C 3.28125 -9.324219 3.300781 -9.15625 3.34375 -9.0625 L 3.273438 -9.085938 C 3.289062 -8.683594 3.207031 -8.234375 3.105469 -7.953125 C 2.921875 -7.222656 2.527344 -6.570312 2.253906 -6.03125 C 2.03125 -5.636719 1.832031 -5.308594 1.65625 -4.816406 L 1.863281 -4.503906 C 1.636719 -2.117188 2.804688 0.613281 3.859375 0.992188 C 4.210938 1.121094 4.667969 0.964844 5.035156 0.382812 L 5.964844 1.117188 L 6.105469 1.167969 C 6.667969 1.371094 6.96875 0.761719 7.4375 -0.105469 C 8.03125 -1.085938 8.800781 -2.558594 10.421875 -3.964844 L 10.398438 -3.894531 C 10.589844 -3.984375 10.664062 -4.195312 10.671875 -4.429688 C 10.796875 -4.785156 11.210938 -5.269531 11.503906 -5.644531 C 11.847656 -6.15625 12.238281 -6.574219 12.34375 -7.089844 C 12.828125 -7.554688 13.367188 -8.15625 13.902344 -8.757812 C 15.96875 -10.957031 18.328125 -13.53125 21.023438 -15.265625 C 22.105469 -16.945312 25.464844 -17.882812 26.171875 -17.628906 C 26.746094 -17.898438 27.199219 -18.054688 27.460938 -18.117188 C 27.4375 -18.046875 27.4375 -18.046875 26.976562 -17.65625 L 26.515625 -17.265625 C 26.308594 -16.464844 25.414062 -15.75 24.496094 -14.96875 C 23.84375 -14.488281 23.117188 -13.792969 22.902344 -13.632812 C 19.640625 -10.113281 16.921875 -6.316406 16.371094 -4.128906 C 15.332031 -0.363281 15.484375 4.070312 19.640625 5.566406 C 20.066406 5.71875 20.582031 5.828125 21.101562 5.933594 L 21.429688 6.132812 C 21.613281 6.277344 21.800781 6.425781 22.011719 6.5 C 22.574219 6.703125 26.058594 5.652344 26.824219 5.289062 L 26.753906 5.265625 C 28.679688 5.003906 31.847656 3.28125 33.1875 1.773438 L 37.265625 -1.371094 C 38.375 -2.246094 39.058594 -3.035156 39.785156 -3.726562 L 42.164062 -6.132812 C 42.476562 -6.339844 42.675781 -6.664062 42.707031 -6.972656 C 42.832031 -7.324219 42.703125 -7.847656 42.28125 -8 C 41.292969 -8.355469 38.21875 -5.566406 36.011719 -3.417969 C 35.136719 -2.539062 34.265625 -1.660156 33.585938 -1.105469 C 29.765625 2.210938 24.457031 4.355469 21.976562 3.941406 C 21.933594 3.847656 21.984375 3.707031 21.964844 3.539062 C 22.339844 2.71875 23.511719 1.230469 25.019531 -0.296875 C 25.042969 -0.367188 25.023438 -0.53125 25.074219 -0.671875 L 29.363281 -5.730469 L 29.390625 -5.800781 L 30.078125 -6.828125 L 31.957031 -9.175781 C 32.496094 -9.777344 33.054688 -10.449219 33.597656 -11.289062 C 33.429688 -12.148438 33.324219 -12.742188 33.097656 -13.222656 C 33.46875 -13.804688 33.644531 -14.296875 33.753906 -14.816406 C 34.425781 -17.121094 33.703125 -20.644531 31.730469 -21.355469 C 29.40625 -22.191406 23.292969 -19.140625 20.175781 -17.558594 L 19.289062 -17.082031 L 19.925781 -17.96875 C 20.332031 -19.09375 20.285156 -20.066406 20.230469 -20.804688 C 20.222656 -21.441406 20.214844 -22.082031 20.324219 -22.601562 C 20.398438 -22.8125 20.429688 -23.121094 20.488281 -23.496094 L 20.542969 -23.875 C 19.945312 -25.523438 17.921875 -28.082031 16.511719 -28.589844 C 15.949219 -28.792969 15.679688 -28.492188 15.476562 -27.929688 C 15.109375 -26.46875 13.792969 -24.796875 12.210938 -23.058594 Z M 9.183594 -19.292969 "/></g></g></g><g fill="rgb(0%, 29.019165%, 67.83905%)" fill-opacity="1"><g transform="translate(241.854996, 144.200173)"><g><path d="M 30.152344 -17.574219 C 29.898438 -17.730469 29.582031 -17.929688 29.183594 -18 C 29.160156 -18.101562 29.097656 -18.144531 28.96875 -18.222656 C 28.714844 -18.378906 28.214844 -18.425781 27.816406 -18.496094 C 27.382812 -18.503906 27.046875 -18.535156 26.855469 -18.652344 L 26.410156 -18.929688 C 26.222656 -19.050781 26.070312 -19.230469 25.878906 -19.351562 C 25.433594 -19.625 24.78125 -19.855469 23.894531 -19.703125 L 23.417969 -19.644531 L 23.457031 -19.710938 C 23.226562 -19.765625 23.019531 -19.71875 22.710938 -19.644531 C 21.554688 -19.484375 20.277344 -19.132812 19.0625 -18.738281 L 17.683594 -18.363281 C 16.769531 -18.316406 14.789062 -17.253906 13.519531 -16.632812 L 13.027344 -16.410156 L 11.832031 -15.476562 C 10.40625 -14.601562 9.003906 -13.621094 7.816406 -12.421875 C 7.734375 -12.292969 7.554688 -12.144531 7.472656 -12.015625 C 7.371094 -11.992188 7.292969 -11.867188 7.253906 -11.800781 C 6.230469 -10.585938 5.171875 -9.304688 4.339844 -7.96875 C 4.363281 -7.867188 3.746094 -7.015625 3.152344 -6.0625 C 2.496094 -5.148438 1.902344 -4.195312 1.902344 -4.195312 C 1.585938 -3.6875 1.484375 -2.957031 1.488281 -2.25 L 1.421875 -2.289062 C 0.128906 0.785156 0.902344 2.941406 1.769531 4.097656 L 1.792969 4.203125 C 2.664062 6.066406 4.753906 7.808594 6.472656 8.875 C 8.441406 10.101562 10.203125 9.960938 12.53125 9.910156 L 15.332031 9.800781 C 16.949219 9.75 19.195312 9.117188 20.757812 8.589844 L 20.964844 8.542969 C 22.167969 7.878906 24.046875 7.550781 25.445312 7.007812 L 27.742188 6.148438 L 28.289062 5.691406 C 28.433594 5.605469 28.535156 5.582031 28.617188 5.453125 L 29.25 5.144531 C 30.605469 4.664062 32.082031 3.996094 32.832031 3.492188 C 34.4375 2.902344 35.585938 2.472656 35.957031 1.730469 C 36.089844 1.375 36.171875 1.246094 36.042969 1.167969 C 36.042969 1.167969 35.941406 1.191406 35.773438 1.175781 L 35.8125 1.113281 L 35.414062 1.042969 C 35.289062 0.964844 34.996094 0.867188 34.726562 0.878906 C 34.035156 0.710938 31.417969 2.082031 28.984375 3.300781 C 27.675781 3.988281 26.027344 4.371094 25.183594 4.730469 C 24.796875 4.929688 24.203125 5.179688 23.773438 5.441406 C 17.304688 7.765625 10.875 7.46875 9.03125 6.320312 C 7.949219 5.648438 7.019531 4.453125 7.390625 3.714844 C 7.800781 2.910156 8.425781 1.625 9.175781 0.417969 C 10.125 -1.109375 11.199219 -2.554688 12.207031 -2.898438 L 14.273438 -2.671875 C 15.167969 -2.558594 19.082031 -3.035156 20.460938 -3.410156 C 22.160156 -3.585938 23.914062 -3.996094 25.449219 -4.625 L 25.925781 -4.683594 C 27.449219 -5.148438 30.25 -6.667969 30.730469 -7.160156 C 31.769531 -7.839844 32.554688 -8.671875 33.105469 -9.5625 C 35.222656 -14.242188 30.851562 -17.136719 30.152344 -17.574219 Z M 24.71875 -10.109375 C 26.460938 -10.789062 28.460938 -11.308594 29.046875 -11.117188 C 29.222656 -10.832031 29.257812 -10.460938 29.367188 -10.214844 C 27.816406 -8.003906 24.027344 -6.304688 19.941406 -5.410156 L 17.832031 -5.132812 C 17.148438 -5.027344 16.363281 -4.902344 15.695312 -4.960938 C 16.867188 -5.996094 19.902344 -7.898438 23.242188 -9.4375 C 23.28125 -9.503906 23.488281 -9.550781 23.527344 -9.613281 C 23.75 -9.828125 24.097656 -9.964844 24.242188 -10.050781 Z M 24.71875 -10.109375 "/></g></g></g><g fill="rgb(0%, 29.019165%, 67.83905%)" fill-opacity="1"><g transform="translate(260.839006, 155.125105)"><g><path d="M 4.835938 2.753906 C 6.796875 4.40625 8.410156 3.714844 10.234375 2.925781 L 11.953125 2.242188 C 12.011719 2.082031 12.121094 1.980469 12.285156 1.828125 L 12.554688 1.570312 L 17.9375 -1.007812 L 23.511719 -3.050781 L 23.457031 -3 C 27.34375 -3.5625 32.011719 -3.835938 33.378906 -3.476562 C 33.003906 -3.328125 32.253906 -3.035156 31.128906 -2.699219 L 29.414062 -2.121094 L 28.914062 -1.339844 C 28.644531 -1.191406 28.109375 -1.101562 27.945312 -0.949219 C 26.875 -0.558594 25.425781 -0.0234375 24.992188 0.386719 L 24.882812 0.488281 L 24.765625 0.800781 C 22.074219 2.09375 19.324219 3.644531 17.890625 5.292969 C 15.859375 7.503906 15.648438 10.785156 16.210938 11.382812 C 16.417969 11.601562 16.472656 11.445312 16.527344 11.5 C 16.957031 12.945312 17.863281 14.351562 18.476562 15.113281 C 20.234375 14.796875 21.421875 14.09375 22.75 13.980469 C 22.917969 13.613281 25.523438 11.6875 27.367188 10.367188 C 28.398438 9.605469 29.269531 8.894531 29.324219 8.84375 C 29.652344 8.535156 29.832031 7.957031 30.113281 7.382812 C 30.230469 7.070312 30.347656 6.757812 30.566406 6.445312 C 35.15625 5.429688 40.816406 5.664062 42.648438 6.414062 C 42.378906 6.5625 41.898438 6.601562 41.417969 6.742188 C 39.0625 7.515625 34.835938 8.808594 32.96875 10.867188 C 30.386719 12.054688 27.253906 13.859375 25.941406 15.195312 C 25.664062 15.558594 25.382812 16.023438 25.261719 16.550781 C 23.214844 19.1875 22.648438 21.976562 23.757812 23.707031 L 23.859375 23.816406 C 24.0625 24.140625 24.210938 24.410156 24.46875 24.683594 C 27.59375 28.015625 32.753906 27.28125 37.4375 26.585938 L 39.085938 26.375 C 42.707031 25.855469 46.492188 25.078125 49.21875 24.265625 L 49.164062 24.316406 L 50.871094 23.949219 C 51.300781 23.855469 51.679688 23.605469 51.84375 23.34375 C 52.226562 22.984375 52.242188 22.5625 51.882812 22.179688 C 51.167969 21.414062 47.429688 22.246094 44.230469 22.992188 C 40.644531 24.09375 30.441406 25.035156 27.785156 23.730469 C 27.785156 23.625 27.84375 23.46875 27.898438 23.417969 C 28.335938 23.007812 29.359375 22.5625 30.804688 22.027344 C 30.914062 21.925781 31.136719 21.613281 31.300781 21.460938 C 33.1875 20.410156 35.132812 19.199219 36.976562 17.988281 L 36.921875 17.933594 L 40.777344 16.683594 C 41.050781 16.425781 41.269531 16.222656 41.496094 15.804688 C 42.839844 15.160156 44.078125 14.511719 45.164062 13.699219 C 45.496094 13.285156 45.671875 12.816406 45.792969 12.289062 C 46.175781 11.929688 46.882812 11.371094 47.15625 11.113281 C 48.808594 9.15625 49.273438 6.257812 48.042969 4.945312 C 47.070312 3.90625 42.890625 3.824219 39.765625 3.777344 L 39.183594 3.707031 L 39.238281 3.761719 L 37.070312 3.53125 L 35.0625 3.464844 C 35.65625 3.113281 36.144531 2.757812 36.636719 2.296875 C 38.34375 0.289062 39.839844 -3.476562 38.355469 -5.0625 C 37.125 -6.265625 29.65625 -6.242188 25.988281 -5.886719 L 24.292969 -5.835938 C 24.5625 -6.089844 24.726562 -6.140625 25.265625 -6.4375 C 26.292969 -7.09375 27.589844 -7.898438 28.578125 -9.035156 C 31.492188 -12.277344 31.234375 -15.726562 30.3125 -16.710938 C 30.003906 -17.039062 28.3125 -17.199219 26.40625 -17.15625 C 25.566406 -17.394531 21.726562 -15.027344 18.859375 -13.160156 L 16.425781 -11.597656 L 12.5625 -10.027344 L 11.503906 -8.421875 C 9.996094 -7.726562 8.222656 -6.886719 7.234375 -5.859375 C 7.179688 -5.804688 7.070312 -5.703125 7.117188 -5.542969 C 7.007812 -5.441406 6.792969 -5.34375 6.683594 -5.238281 C 6.089844 -4.886719 5.605469 -4.640625 5.164062 -4.125 C 2.636719 -1.238281 2.515625 2.464844 2.824219 2.792969 Z M 4.835938 2.753906 "/></g></g></g><g fill="rgb(0%, 29.019165%, 67.83905%)" fill-opacity="1"><g transform="translate(290.626415, 185.127379)"><g><path d="M 7.589844 3.539062 L 7.621094 3.4375 C 7.820312 3.335938 8.589844 3.199219 9.125 3.09375 L 9.058594 3.128906 L 9.492188 2.992188 C 10.933594 2.851562 11.835938 2.8125 13.074219 2.769531 L 14.648438 2.730469 C 15.921875 2.585938 17.058594 2.515625 18.464844 2.640625 C 20.105469 2.230469 22.117188 3.054688 23.796875 3.714844 L 25.539062 4.339844 C 27.886719 4.996094 30.015625 7.863281 30.757812 9.332031 C 30.828125 9.46875 30.929688 9.667969 30.929688 9.835938 C 31.367188 10.367188 31.972656 10.398438 32.605469 9.992188 C 33.804688 9.214844 34.484375 4.589844 34.035156 2.550781 L 33.867188 2.21875 C 33.121094 0.75 30.628906 -1.847656 28.546875 -2.976562 L 28.578125 -2.910156 L 27.605469 -3.675781 C 24.816406 -5.199219 21.53125 -5.882812 18.480469 -6.433594 L 16.839844 -6.359375 C 12.382812 -6.699219 7.363281 -6.171875 4.460938 -4.445312 C -0.175781 -1.503906 0.222656 3.75 1.882812 7.019531 C 2.1875 7.621094 3.195312 8.117188 4.300781 8.648438 L 4.636719 8.8125 C 5.109375 9.582031 6.753906 9.839844 8.261719 10 C 8.695312 10.03125 9.097656 9.992188 9.601562 10.15625 L 12.78125 10.140625 L 12.714844 10.171875 L 14.59375 10.398438 C 14.457031 10.464844 14.660156 10.363281 14.222656 10.5 C 14.15625 10.535156 14.058594 10.5 13.992188 10.535156 L 13.488281 10.871094 C 13.054688 11.175781 12.722656 11.347656 12.386719 11.515625 C 12.054688 11.683594 11.585938 11.921875 11.289062 12.15625 C 10.6875 12.460938 10.019531 12.96875 9.585938 13.441406 C 8.15625 14.753906 6.601562 18.3125 7.652344 20.382812 C 7.921875 20.917969 8.359375 21.28125 8.832031 21.714844 L 9.300781 22.148438 C 10.011719 23.382812 14.105469 24.832031 15.578125 24.757812 C 16.515625 24.953125 18.863281 25.105469 21.140625 25.292969 C 23.25 25.484375 25.261719 25.640625 26.097656 25.800781 C 28.679688 25.921875 30.320312 26.179688 31.324219 26.339844 C 32.128906 26.4375 32.566406 26.46875 32.765625 26.367188 C 33.132812 26.265625 33.332031 26.164062 33.535156 26.0625 C 33.96875 25.757812 34.03125 25.386719 33.863281 25.054688 C 33.726562 24.789062 33.425781 24.519531 33.121094 24.421875 L 29.773438 24.105469 C 28.933594 24.113281 27.730469 23.882812 26.992188 23.921875 C 25.6875 23.996094 24.648438 23.765625 23.945312 23.703125 L 19.386719 23.496094 C 16.675781 23.277344 12.285156 22.398438 11.46875 20.796875 C 11.300781 20.460938 11.03125 19.761719 11.230469 19.660156 C 11.464844 19.457031 12.199219 19.417969 13.203125 19.414062 L 16.015625 18.996094 C 16.683594 18.824219 17.320312 18.753906 17.953125 18.683594 C 18.925781 18.609375 19.863281 18.472656 20.964844 17.996094 C 22.433594 17.25 23.238281 17.179688 23.738281 17.175781 C 23.972656 17.140625 24.273438 17.074219 24.472656 16.972656 C 24.609375 16.902344 25.378906 16.765625 26.179688 16.695312 C 27.21875 16.585938 28.421875 16.480469 28.589844 16.3125 C 29.089844 15.972656 29.121094 15.539062 29.21875 15.070312 L 29.253906 15.136719 L 29.25 14.96875 L 29.316406 14.933594 C 29.386719 14.898438 29.453125 14.867188 29.550781 14.730469 C 29.976562 13.257812 29.46875 12.253906 28.828125 10.984375 C 28.453125 10.25 27.101562 7.914062 26.234375 8.355469 C 25.597656 8.425781 25.09375 8.429688 24.894531 8.363281 C 24.523438 8.296875 24.054688 8.199219 23.121094 8.339844 C 22.28125 8.511719 21.445312 8.683594 20.777344 8.6875 C 19.4375 8.527344 17.695312 8.570312 15.789062 8.617188 C 13.277344 8.628906 10.363281 8.679688 8.351562 8.355469 C 7.078125 7.996094 5.902344 7.667969 5.261719 6.398438 L 5.160156 6.199219 C 4.957031 5.796875 5.152344 5.363281 5.789062 4.957031 C 5.988281 4.855469 6.085938 4.71875 6.1875 4.585938 C 6.421875 4.382812 6.722656 4.148438 6.988281 4.011719 Z M 7.589844 3.539062 "/></g></g></g></svg>