<svg xmlns="http://www.w3.org/2000/svg" xmlns:xlink="http://www.w3.org/1999/xlink" width="500" zoomAndPan="magnify" viewBox="0 0 375 374.999991" height="500" preserveAspectRatio="xMidYMid meet" version="1.0"><defs><g/><clipPath id="id1"><path d="M 68 83 L 279.507812 83 L 279.507812 207.558594 L 68 207.558594 Z M 68 83 " clip-rule="nonzero"/></clipPath><clipPath id="id2"><path d="M 183 83 L 279.507812 83 L 279.507812 132 L 183 132 Z M 183 83 " clip-rule="nonzero"/></clipPath></defs><g clip-path="url(#id1)"><path fill="rgb(94.509888%, 94.509888%, 94.898987%)" d="M 199.339844 84.402344 C 199.339844 84.402344 186.167969 79.308594 184.421875 89.238281 C 182.675781 99.164062 184.167969 104.730469 187.191406 107.253906 C 190.21875 109.777344 194.523438 111.0625 194.269531 106.484375 C 194.011719 101.90625 193.5 95.570312 197.550781 96.597656 C 201.597656 97.625 226.617188 109.820312 226.617188 109.820312 L 243.453125 131.429688 L 156.292969 166.734375 L 79.742188 119.921875 C 78.039062 118.894531 76.078125 118.335938 74.074219 118.550781 C 71.09375 118.808594 67.511719 123 68.40625 130.40625 C 69.941406 143.113281 74.117188 147.992188 75.867188 147.992188 C 79.488281 147.992188 79.402344 144.355469 78.636719 141.316406 C 77.867188 138.277344 78.378906 134.214844 79.402344 134.726562 C 80.425781 135.238281 106.210938 151.246094 106.210938 151.246094 L 128.460938 182.738281 L 157.742188 201.527344 C 158.335938 202.554688 159.574219 203.152344 160.808594 202.722656 C 162.898438 202.039062 165.15625 202.851562 166.308594 204.734375 L 166.394531 204.90625 C 167.542969 206.789062 169.886719 207.558594 171.890625 206.703125 L 201.511719 194.464844 C 208.671875 191.253906 208.289062 187.40625 211.957031 180.429688 L 218.648438 167.761719 C 219.5 166.179688 220.90625 164.9375 222.652344 164.382812 L 223.976562 163.953125 C 225.808594 163.355469 227.8125 164.039062 228.917969 165.664062 L 233.136719 171.914062 C 234.886719 174.523438 238.296875 175.507812 241.152344 174.222656 L 264.847656 163.824219 C 267.191406 162.796875 268.898438 160.746094 269.453125 158.261719 L 269.578125 157.707031 C 270.304688 154.625 272.351562 152.101562 275.207031 150.773438 C 276.570312 150.132812 277.421875 148.847656 277.507812 147.351562 L 279.125 117.011719 Z M 199.339844 84.402344 " fill-opacity="1" fill-rule="nonzero"/></g><path fill="rgb(33.329773%, 68.238831%, 87.449646%)" d="M 203.558594 182.613281 L 173.210938 196.433594 C 170.441406 197.675781 167.332031 195.664062 167.332031 192.625 L 167.332031 176.621094 C 167.332031 172.511719 169.804688 168.789062 173.554688 167.207031 L 204.199219 154.195312 C 206.925781 153.042969 209.996094 155.054688 209.996094 158.046875 L 209.996094 172.554688 C 210.039062 176.878906 207.523438 180.8125 203.558594 182.613281 Z M 203.558594 182.613281 " fill-opacity="1" fill-rule="nonzero"/><path fill="rgb(89.408875%, 24.708557%, 19.60907%)" d="M 264.847656 154.539062 L 241.023438 165.664062 C 238.550781 166.820312 235.695312 164.980469 235.695312 162.242188 L 235.695312 149.53125 C 235.695312 144.097656 239.019531 139.175781 244.050781 137.164062 L 267.578125 127.835938 C 269.410156 127.109375 271.414062 128.519531 271.328125 130.488281 L 270.816406 145.511719 C 270.644531 149.445312 268.34375 152.914062 264.847656 154.539062 Z M 264.847656 154.539062 " fill-opacity="1" fill-rule="nonzero"/><g clip-path="url(#id2)"><path fill="rgb(57.649231%, 57.249451%, 57.249451%)" d="M 279.253906 116.925781 L 199.339844 84.402344 C 199.339844 84.402344 186.167969 79.308594 184.421875 89.238281 C 182.675781 99.164062 184.167969 104.730469 187.191406 107.253906 C 190.21875 109.777344 194.523438 111.0625 194.269531 106.484375 C 194.011719 101.90625 193.5 95.570312 197.550781 96.597656 C 201.597656 97.625 226.617188 109.820312 226.617188 109.820312 L 243.453125 131.429688 Z M 279.253906 116.925781 " fill-opacity="0.2" fill-rule="nonzero"/></g><path fill="rgb(57.649231%, 57.249451%, 57.249451%)" d="M 156.335938 166.691406 L 79.742188 119.921875 C 78.039062 118.894531 76.078125 118.335938 74.074219 118.550781 C 71.09375 118.808594 67.511719 123 68.40625 130.40625 C 69.941406 143.113281 74.117188 147.992188 75.867188 147.992188 C 79.488281 147.992188 79.402344 144.355469 78.636719 141.316406 C 77.867188 138.277344 78.378906 134.214844 79.402344 134.726562 C 80.425781 135.238281 106.210938 151.246094 106.210938 151.246094 L 128.460938 182.738281 L 157.742188 201.527344 Z M 156.335938 166.691406 " fill-opacity="0.1765" fill-rule="nonzero"/><g fill="rgb(0%, 29.019165%, 67.83905%)" fill-opacity="1"><g transform="translate(21.627055, 263.273155)"><g><path d="M 37.886719 -0.0742188 C 38.109375 -0.0742188 38.335938 -0.148438 38.410156 -0.148438 C 38.484375 -0.148438 38.785156 -1.496094 34.292969 -4.417969 L 38.558594 -10.558594 C 38.410156 -10.632812 38.484375 -10.707031 38.335938 -10.707031 C 41.40625 -15.199219 42.605469 -22.539062 42.605469 -28.152344 C 42.605469 -29.050781 42.605469 -29.949219 42.527344 -30.699219 C 42.378906 -31.820312 43.503906 -34.816406 42.753906 -36.238281 C 40.730469 -40.132812 40.804688 -47.917969 33.019531 -50.390625 C 31.820312 -50.765625 30.625 -50.914062 29.5 -50.914062 C 22.3125 -50.914062 15.796875 -44.699219 12.578125 -40.957031 C 12.730469 -43.578125 13.550781 -46.421875 7.863281 -48.519531 C 7.335938 -48.667969 6.589844 -48.816406 5.914062 -48.816406 C 5.242188 -48.816406 4.640625 -48.667969 4.117188 -48.292969 L 3.667969 -43.351562 C 4.042969 -39.382812 3.144531 -34.59375 3.21875 -30.699219 L 3.144531 -27.253906 C 3.144531 -26.878906 3.070312 -26.730469 3.144531 -26.429688 L 3.292969 -23.886719 C 3.445312 -21.714844 2.769531 -19.167969 2.769531 -16.246094 C 2.769531 -15.5 2.84375 -14.75 2.921875 -13.925781 L 2.921875 -13.851562 C 2.171875 -13.851562 1.347656 -13.925781 0.597656 -13.925781 C -5.914062 -13.925781 -11.304688 -12.578125 -12.730469 -7.636719 C -13.402344 -7.261719 -13.628906 -6.515625 -13.550781 -5.691406 C -12.804688 2.394531 -0.449219 7.863281 7.039062 7.863281 C 10.257812 7.863281 12.878906 7.113281 16.847656 6.664062 C 21.863281 6.214844 28.976562 1.648438 32.195312 -2.394531 C 32.269531 -2.472656 32.347656 -2.546875 32.421875 -2.546875 C 32.570312 -2.546875 32.71875 -2.472656 32.945312 -2.394531 C 33.992188 -2.097656 35.863281 -0.523438 36.914062 -0.226562 C 37.136719 -0.148438 37.585938 -0.0742188 37.886719 -0.0742188 Z M 13.027344 -37.738281 C 13.851562 -40.132812 19.617188 -45.148438 24.335938 -46.796875 C 24.410156 -46.871094 24.558594 -46.871094 24.707031 -46.871094 C 26.878906 -46.871094 32.121094 -42.078125 32.347656 -39.90625 L 32.347656 -38.636719 C 32.421875 -37.660156 32.796875 -36.464844 32.871094 -35.265625 C 32.945312 -34.441406 32.945312 -33.617188 32.945312 -32.796875 C 32.945312 -24.335938 29.726562 -13.328125 25.007812 -9.359375 C 22.011719 -10.78125 18.492188 -12.203125 13.027344 -13.179688 L 10.40625 -13.402344 C 11.832031 -19.242188 13.101562 -31.296875 13.101562 -34.144531 C 13.101562 -35.191406 13.328125 -36.089844 13.179688 -36.914062 Z M 22.988281 -6.289062 C 18.417969 -0.675781 11.679688 5.089844 3.742188 5.089844 C 2.097656 5.089844 0.449219 4.867188 -1.273438 4.34375 C -5.390625 3.070312 -10.484375 -1.273438 -11.304688 -4.492188 C -11.53125 -10.332031 -5.765625 -12.203125 1.046875 -12.355469 L 3.292969 -12.203125 C 4.042969 -9.734375 5.242188 -6.886719 6.738281 -6.664062 L 6.886719 -6.664062 C 7.863281 -6.664062 8.160156 -8.984375 8.984375 -10.183594 C 9.285156 -10.03125 9.660156 -10.707031 10.03125 -11.832031 C 13.476562 -11.53125 20.964844 -9.660156 23.4375 -7.335938 C 23.136719 -6.964844 23.0625 -6.738281 22.988281 -6.289062 Z M 22.988281 -6.289062 "/></g></g></g><g fill="rgb(0%, 29.019165%, 67.83905%)" fill-opacity="1"><g transform="translate(66.548531, 263.273155)"><g><path d="M 16.324219 -30.847656 C 16.023438 -30.847656 15.648438 -30.847656 15.273438 -30.699219 C 15.199219 -30.773438 15.125 -30.773438 14.976562 -30.773438 C 14.675781 -30.773438 14.226562 -30.546875 13.851562 -30.398438 C 13.476562 -30.175781 13.179688 -30.023438 12.953125 -30.023438 L 12.429688 -30.023438 C 12.203125 -30.023438 11.980469 -30.097656 11.753906 -30.097656 C 11.230469 -30.097656 10.558594 -29.949219 9.882812 -29.351562 L 9.507812 -29.050781 L 9.507812 -29.125 C 9.285156 -29.050781 9.132812 -28.902344 8.910156 -28.675781 C 8.011719 -27.929688 7.113281 -26.953125 6.289062 -25.980469 L 5.316406 -24.933594 C 4.566406 -24.410156 3.445312 -22.460938 2.695312 -21.265625 L 2.394531 -20.816406 L 1.871094 -19.390625 C 1.125 -17.894531 0.449219 -16.324219 0.0742188 -14.675781 C 0.0742188 -14.527344 0 -14.300781 0 -14.152344 C -0.0742188 -14.078125 -0.0742188 -13.925781 -0.0742188 -13.851562 C -0.300781 -12.28125 -0.523438 -10.632812 -0.523438 -9.058594 C -0.449219 -8.984375 -0.523438 -7.9375 -0.523438 -6.8125 C -0.597656 -5.691406 -0.597656 -4.566406 -0.597656 -4.566406 C -0.597656 -3.96875 -0.300781 -3.292969 0.0742188 -2.695312 L 0 -2.695312 C 0.523438 0.597656 2.320312 2.023438 3.667969 2.546875 L 3.742188 2.621094 C 5.464844 3.742188 8.160156 4.117188 10.183594 4.117188 C 12.503906 4.117188 13.925781 3.070312 15.875 1.796875 L 18.195312 0.226562 C 19.542969 -0.675781 21.113281 -2.394531 22.164062 -3.667969 L 22.3125 -3.820312 C 22.988281 -5.015625 24.410156 -6.289062 25.308594 -7.488281 L 26.804688 -9.433594 L 27.03125 -10.109375 C 27.105469 -10.257812 27.179688 -10.332031 27.179688 -10.484375 L 27.554688 -11.082031 C 28.453125 -12.203125 29.351562 -13.550781 29.726562 -14.375 C 30.773438 -15.722656 31.523438 -16.695312 31.449219 -17.519531 C 31.371094 -17.894531 31.371094 -18.042969 31.222656 -18.042969 C 31.222656 -18.042969 31.148438 -17.96875 31 -17.894531 L 31 -17.96875 L 30.625 -17.820312 C 30.472656 -17.820312 30.175781 -17.746094 29.949219 -17.59375 C 29.277344 -17.371094 27.777344 -14.824219 26.355469 -12.503906 C 25.605469 -11.230469 24.410156 -10.03125 23.886719 -9.285156 C 23.660156 -8.910156 23.285156 -8.386719 23.0625 -7.9375 C 18.792969 -2.546875 13.179688 0.597656 11.007812 0.597656 C 9.734375 0.597656 8.3125 0.0742188 8.234375 -0.75 C 8.160156 -1.648438 8.011719 -3.070312 8.011719 -4.492188 C 8.011719 -6.289062 8.160156 -8.085938 8.835938 -8.910156 L 10.707031 -9.808594 C 11.53125 -10.183594 14.601562 -12.652344 15.574219 -13.703125 C 16.921875 -14.75 18.195312 -16.023438 19.167969 -17.371094 L 19.542969 -17.671875 C 20.589844 -18.867188 22.164062 -21.640625 22.3125 -22.3125 C 22.835938 -23.4375 23.0625 -24.558594 23.0625 -25.605469 C 22.386719 -30.699219 17.144531 -30.847656 16.324219 -30.847656 Z M 15.648438 -21.640625 C 16.773438 -23.136719 18.195312 -24.632812 18.792969 -24.785156 C 19.09375 -24.632812 19.316406 -24.335938 19.542969 -24.183594 C 19.390625 -21.488281 17.070312 -18.042969 14.078125 -15.125 L 12.429688 -13.777344 C 11.90625 -13.328125 11.304688 -12.804688 10.707031 -12.503906 C 11.15625 -14 12.730469 -17.222656 14.75 -20.289062 C 14.75 -20.367188 14.898438 -20.515625 14.898438 -20.589844 C 14.976562 -20.890625 15.199219 -21.191406 15.273438 -21.339844 Z M 15.648438 -21.640625 "/></g></g></g><g fill="rgb(0%, 29.019165%, 67.83905%)" fill-opacity="1"><g transform="translate(92.977329, 263.273155)"><g><path d="M 10.109375 -16.472656 C 10.109375 -17.671875 10.109375 -18.792969 10.332031 -20.066406 C 10.40625 -20.816406 10.484375 -21.488281 10.484375 -22.011719 C 10.484375 -22.910156 10.257812 -23.511719 9.582031 -23.660156 C 9.660156 -24.257812 9.660156 -24.933594 9.582031 -25.457031 C 9.285156 -28.828125 6.289062 -30.175781 4.492188 -30.175781 C 3.96875 -30.175781 1.945312 -30.023438 1.796875 -29.574219 C 1.648438 -28.828125 -0.449219 -26.054688 -0.449219 -26.054688 C -0.449219 -25.757812 -0.300781 -25.605469 -0.226562 -25.382812 L -0.226562 -25.457031 L 0.675781 -23.808594 C 0.675781 -22.835938 0.675781 -21.5625 0.75 -20.664062 C 0.75 -19.691406 0.824219 -18.71875 0.824219 -17.820312 C 0.824219 -16.546875 0.75 -15.347656 0.523438 -14.152344 C 0.675781 -12.652344 0.75 -11.53125 0.75 -10.558594 C 0.75 -9.882812 0.675781 -8.835938 0.675781 -8.3125 L 0.675781 -6.4375 C 0.972656 -3.445312 4.191406 0.824219 7.414062 0.824219 C 8.460938 0.824219 9.132812 0.375 9.808594 0.0742188 L 10.332031 -0.226562 C 9.734375 -0.597656 13.027344 -3.070312 15.875 -4.941406 C 17.296875 -5.914062 17.445312 -6.363281 17.59375 -6.738281 C 17.671875 -6.964844 18.792969 -7.785156 19.09375 -8.011719 C 24.558594 -14.449219 31 -23.886719 30.921875 -28.75 C 30.847656 -29.726562 30.625 -30.472656 30.398438 -31.148438 C 30.175781 -31.898438 29.949219 -32.570312 29.875 -33.167969 L 29.875 -33.992188 C 28.976562 -35.566406 28.078125 -36.761719 27.402344 -36.761719 C 26.953125 -36.761719 26.65625 -36.164062 26.65625 -34.964844 C 26.65625 -34.667969 26.65625 -34.144531 26.730469 -33.769531 C 26.65625 -32.644531 26.429688 -29.199219 26.132812 -28.601562 C 25.457031 -20.214844 16.921875 -7.335938 11.382812 -4.269531 C 11.15625 -4.34375 10.40625 -5.015625 10.257812 -5.316406 L 10.257812 -10.484375 C 10.257812 -14.601562 10.183594 -15.949219 10.109375 -16.472656 Z M 10.109375 -16.472656 "/></g></g></g><g fill="rgb(0%, 29.019165%, 67.83905%)" fill-opacity="1"><g transform="translate(122.550627, 263.273155)"><g><path d="M 9.210938 -24.632812 C 9.359375 -24.183594 9.507812 -23.886719 9.582031 -23.808594 C 10.03125 -22.910156 10.183594 -22.089844 10.332031 -21.339844 C 10.632812 -20.664062 10.707031 -20.140625 10.707031 -19.617188 C 10.78125 -19.019531 10.78125 -18.417969 11.082031 -17.820312 L 10.632812 -14.449219 C 10.933594 -13.628906 10.707031 -12.878906 10.558594 -12.203125 C 10.40625 -11.753906 10.332031 -11.304688 10.332031 -10.933594 C 10.40625 -10.632812 10.257812 -10.257812 10.109375 -9.957031 C 10.109375 -9.882812 10.03125 -9.734375 10.03125 -9.660156 C 9.957031 -9.132812 9.734375 -8.761719 9.359375 -8.535156 C 9.132812 -8.683594 8.835938 -8.683594 8.386719 -8.683594 C 6.664062 -8.683594 3.445312 -7.785156 2.246094 -6.738281 C 0.972656 -5.988281 -0.0742188 -4.640625 0.148438 -3.292969 C 0.375 -1.871094 1.273438 -0.824219 2.472656 -0.226562 L 2.546875 -0.148438 C 3.96875 0.449219 5.242188 0.972656 6.140625 0.972656 L 6.363281 0.972656 C 6.515625 1.046875 6.589844 1.125 6.738281 1.125 C 7.414062 1.496094 8.234375 1.648438 8.984375 1.648438 C 10.257812 1.574219 12.953125 0.824219 13.777344 0.148438 L 14.449219 -0.300781 C 15.050781 -0.597656 15.722656 -0.972656 16.023438 -1.347656 C 16.621094 -2.472656 17.820312 -4.566406 17.894531 -6.515625 L 18.71875 -6.515625 C 19.019531 -6.589844 19.542969 -6.886719 19.839844 -7.039062 C 20.589844 -7.1875 21.414062 -7.5625 22.011719 -7.863281 L 22.539062 -8.085938 C 24.632812 -9.132812 26.132812 -10.40625 27.253906 -11.53125 L 27.703125 -12.355469 C 28.902344 -13.628906 29.648438 -15.050781 30.398438 -16.324219 C 31 -17.070312 31.449219 -17.671875 31.449219 -18.042969 C 31.671875 -19.019531 31.296875 -19.542969 30.699219 -19.542969 C 30.398438 -19.542969 30.097656 -19.390625 29.800781 -19.09375 C 28.226562 -15.949219 25.832031 -12.878906 22.910156 -10.855469 L 22.6875 -10.707031 L 22.761719 -10.707031 C 22.164062 -10.257812 21.339844 -9.808594 20.441406 -9.582031 L 18.867188 -9.058594 C 18.941406 -9.660156 19.316406 -10.332031 19.691406 -10.855469 C 20.066406 -11.382812 20.367188 -11.832031 20.441406 -12.28125 C 20.664062 -12.652344 20.589844 -13.179688 20.441406 -13.925781 C 20.367188 -14.226562 20.289062 -14.601562 20.289062 -14.898438 L 20.066406 -15.648438 C 19.992188 -15.722656 20.066406 -16.023438 20.140625 -16.097656 C 20.289062 -16.472656 20.515625 -16.621094 20.066406 -16.996094 L 19.242188 -19.242188 L 18.269531 -20.140625 C 17.746094 -21.5625 15.648438 -26.503906 14.75 -27.777344 C 15.050781 -28.453125 15.648438 -29.351562 16.246094 -30.175781 C 17.296875 -31.597656 18.34375 -33.09375 18.195312 -34.144531 C 18.121094 -34.59375 17.96875 -34.964844 17.894531 -35.265625 L 17.671875 -36.164062 C 17.371094 -37.511719 16.398438 -38.710938 15.5 -39.757812 C 14.824219 -40.355469 14.226562 -40.65625 13.703125 -40.957031 L 13.402344 -41.179688 C 13.027344 -41.480469 12.730469 -41.628906 12.429688 -41.628906 C 11.980469 -41.628906 11.457031 -41.179688 10.484375 -40.207031 L 10.183594 -39.90625 C 9.957031 -39.382812 9.433594 -38.710938 8.984375 -38.109375 C 8.234375 -37.289062 7.488281 -36.3125 7.261719 -35.492188 L 7.710938 -27.105469 C 7.113281 -25.457031 3.070312 -17.820312 2.472656 -16.773438 C 1.796875 -15.425781 1.796875 -13.628906 2.246094 -13.628906 C 2.320312 -13.628906 2.394531 -13.703125 2.472656 -13.777344 C 4.117188 -15.722656 5.765625 -18.867188 7.039062 -21.113281 C 8.160156 -23.0625 8.910156 -24.558594 9.210938 -24.632812 Z M 2.621094 -3.371094 C 3.894531 -5.390625 8.761719 -6.4375 8.910156 -6.214844 C 8.535156 -4.117188 6.738281 -2.097656 4.492188 -2.097656 C 3.445312 -2.097656 2.472656 -2.769531 2.621094 -3.371094 Z M 2.621094 -3.371094 "/></g></g></g><g fill="rgb(0%, 29.019165%, 67.83905%)" fill-opacity="1"><g transform="translate(148.829679, 263.273155)"><g/></g></g><g fill="rgb(0%, 29.019165%, 67.83905%)" fill-opacity="1"><g transform="translate(175.557949, 263.273155)"><g><path d="M 18.867188 -33.46875 C 17.96875 -33.019531 18.042969 -33.019531 17.671875 -32.71875 L 16.847656 -32.195312 C 16.621094 -32.71875 15.875 -33.542969 14.152344 -33.542969 C 9.957031 -33.542969 3.667969 -26.207031 0.898438 -18.792969 C 0.0742188 -16.472656 -0.300781 -13.328125 -0.148438 -11.53125 C 0.375 -4.941406 5.390625 0.0742188 11.605469 0.597656 C 14.300781 0.597656 17.222656 -0.597656 20.515625 -4.269531 C 21.339844 -5.617188 21.9375 -6.738281 23.0625 -8.011719 L 23.808594 -8.910156 L 24.707031 -10.183594 C 25.007812 -10.632812 25.382812 -11.082031 25.832031 -11.605469 L 26.503906 -12.804688 L 26.503906 -12.730469 C 30.023438 -17.222656 31.148438 -20.367188 31.148438 -20.890625 C 31.074219 -21.414062 30.699219 -21.714844 30.175781 -21.714844 C 29.125 -21.714844 27.628906 -19.242188 26.429688 -16.996094 C 25.832031 -15.875 25.234375 -14.75 24.484375 -13.777344 L 23.660156 -12.652344 C 20.589844 -8.3125 16.398438 -2.695312 14.078125 -2.695312 C 13.925781 -2.695312 13.777344 -2.695312 13.476562 -2.84375 C 13.101562 -2.546875 12.804688 -2.472656 12.578125 -2.472656 C 10.183594 -2.472656 9.058594 -5.390625 8.761719 -8.234375 C 8.609375 -11.007812 9.285156 -13.628906 10.257812 -15.875 L 12.355469 -20.441406 C 12.878906 -21.5625 13.253906 -22.386719 13.703125 -23.0625 L 14 -24.109375 L 14.527344 -25.15625 C 14.898438 -23.886719 15.875 -21.191406 18.195312 -21.191406 C 18.867188 -21.191406 19.617188 -21.191406 19.542969 -22.011719 C 19.390625 -23.660156 19.839844 -24.335938 20.289062 -25.082031 C 20.742188 -25.980469 21.265625 -26.878906 21.113281 -29.125 C 20.742188 -31.898438 19.167969 -33.46875 18.867188 -33.46875 Z M 18.867188 -33.46875 "/></g></g></g><g fill="rgb(0%, 29.019165%, 67.83905%)" fill-opacity="1"><g transform="translate(199.366316, 263.273155)"><g><path d="M 19.09375 -10.332031 L 19.09375 -10.40625 L 19.316406 -11.007812 L 19.316406 -10.933594 C 20.664062 -13.027344 21.789062 -15.050781 22.761719 -16.695312 L 23.359375 -17.746094 C 23.585938 -18.195312 23.886719 -18.644531 24.109375 -18.941406 L 24.109375 -19.019531 C 24.257812 -19.167969 24.257812 -19.316406 24.183594 -19.46875 C 24.558594 -20.441406 24.183594 -20.890625 23.660156 -20.890625 C 23.285156 -20.890625 22.910156 -20.742188 22.539062 -20.367188 C 20.589844 -16.472656 17.222656 -11.082031 14.527344 -7.863281 L 14 -7.261719 C 13.253906 -6.4375 12.429688 -5.539062 11.53125 -5.015625 C 10.332031 -3.96875 9.359375 -3.21875 8.835938 -2.996094 C 8.234375 -3.144531 7.863281 -3.59375 7.863281 -4.117188 C 7.863281 -4.792969 8.234375 -5.617188 8.761719 -6.589844 L 9.058594 -6.886719 C 9.359375 -7.1875 9.359375 -7.261719 9.285156 -7.488281 L 9.210938 -7.5625 C 9.582031 -9.433594 10.183594 -11.53125 10.933594 -13.550781 L 10.933594 -14 C 11.082031 -14.300781 11.304688 -14.824219 11.382812 -15.125 C 11.753906 -16.023438 12.203125 -17.144531 12.578125 -18.34375 C 12.503906 -18.644531 12.503906 -18.941406 12.503906 -19.242188 C 12.503906 -19.46875 12.503906 -19.917969 12.429688 -20.140625 C 12.429688 -20.367188 12.429688 -20.742188 12.355469 -20.964844 L 12.28125 -21.191406 C 12.203125 -21.191406 12.203125 -21.265625 12.203125 -21.339844 L 12.355469 -21.9375 C 12.652344 -22.910156 12.804688 -23.960938 12.730469 -24.707031 C 12.355469 -27.328125 10.632812 -30.546875 7.636719 -30.546875 C 7.1875 -30.546875 6.8125 -30.472656 6.515625 -30.25 C 5.765625 -29.949219 5.316406 -29.125 5.089844 -28.003906 L 5.089844 -27.554688 C 4.492188 -25.53125 3.59375 -23.359375 2.695312 -21.191406 L 1.496094 -17.371094 C 1.125 -15.574219 0.824219 -14 0.597656 -12.503906 L 0.597656 -11.15625 C 0.597656 -10.707031 0.523438 -10.257812 0.523438 -9.808594 C 0.523438 -5.691406 2.023438 -0.972656 6.589844 -0.0742188 C 7.710938 -0.0742188 8.683594 -0.148438 9.734375 -0.675781 L 9.734375 -0.597656 C 10.632812 -0.972656 11.53125 -1.648438 12.578125 -2.320312 L 12.503906 -2.320312 L 12.878906 -2.546875 C 13.550781 -3.144531 14.226562 -3.96875 14.898438 -4.71875 L 15.574219 -5.464844 C 16.773438 -6.738281 17.746094 -8.160156 18.644531 -9.507812 Z M 18.417969 -43.203125 C 18.792969 -43.726562 19.019531 -44.25 19.242188 -44.625 L 19.167969 -44.625 C 19.617188 -45.222656 19.917969 -45.824219 19.839844 -46.648438 C 19.691406 -47.097656 19.316406 -47.621094 18.867188 -47.996094 C 17.59375 -49.042969 15.347656 -49.867188 14.300781 -49.792969 C 13.179688 -49.792969 11.90625 -49.191406 10.855469 -48.21875 C 10.109375 -47.546875 9.582031 -46.496094 9.660156 -44.925781 C 9.660156 -42.902344 10.632812 -41.105469 11.679688 -40.207031 C 12.652344 -39.609375 13.703125 -39.234375 14.675781 -39.160156 C 15.875 -39.160156 16.171875 -39.535156 17.519531 -41.707031 Z M 18.417969 -43.203125 "/></g></g></g><g fill="rgb(0%, 29.019165%, 67.83905%)" fill-opacity="1"><g transform="translate(217.409775, 263.273155)"><g><path d="M 2.097656 -21.265625 C 2.097656 -21.113281 2.097656 -20.964844 2.171875 -20.816406 L 2.246094 -20.664062 L 0.75 -16.246094 L 0.75 -15.199219 C 0.75 -15.050781 0.824219 -14.898438 0.824219 -14.824219 C 0.824219 -14.675781 0.898438 -14.601562 0.898438 -14.449219 C 0.449219 -12.953125 0.0742188 -11.382812 -0.0742188 -9.957031 C -0.0742188 -9.882812 0 -9.734375 0.0742188 -9.660156 L 0 -9.660156 C 0.148438 -9.285156 0.226562 -8.835938 0.226562 -8.535156 C 0.300781 -7.785156 0.148438 -7.039062 0.0742188 -6.4375 C 0 -5.988281 -0.0742188 -5.617188 -0.0742188 -5.089844 L 0.226562 -4.867188 C 0.824219 -2.546875 2.84375 -0.375 3.96875 -0.375 C 4.34375 -0.375 4.71875 -0.675781 4.867188 -1.347656 L 5.988281 -0.972656 L 6.140625 -0.972656 C 6.738281 -0.972656 6.8125 -1.648438 6.964844 -2.621094 C 7.1875 -3.742188 7.414062 -5.390625 8.460938 -7.261719 L 8.460938 -7.1875 C 8.609375 -7.335938 8.609375 -7.5625 8.535156 -7.785156 C 8.535156 -8.160156 8.761719 -8.761719 8.910156 -9.210938 C 9.058594 -9.808594 9.285156 -10.332031 9.210938 -10.855469 C 9.507812 -11.457031 9.808594 -12.203125 10.109375 -12.953125 C 11.304688 -15.722656 12.652344 -18.941406 14.601562 -21.488281 C 15.050781 -23.4375 17.894531 -25.457031 18.644531 -25.457031 C 19.09375 -25.90625 19.46875 -26.207031 19.691406 -26.355469 C 19.691406 -26.28125 19.691406 -26.28125 19.390625 -25.757812 L 19.09375 -25.234375 C 19.167969 -24.410156 18.570312 -23.4375 17.96875 -22.386719 C 17.519531 -21.714844 17.070312 -20.816406 16.921875 -20.589844 C 15.050781 -16.171875 13.777344 -11.679688 14 -9.433594 C 14.300781 -5.539062 15.949219 -1.421875 20.367188 -1.421875 C 20.816406 -1.421875 21.339844 -1.496094 21.863281 -1.574219 L 22.238281 -1.496094 C 22.460938 -1.421875 22.6875 -1.347656 22.910156 -1.347656 C 23.511719 -1.347656 26.429688 -3.519531 27.03125 -4.117188 L 26.953125 -4.117188 C 28.675781 -5.015625 31.074219 -7.710938 31.820312 -9.582031 L 34.59375 -13.925781 C 35.339844 -15.125 35.714844 -16.097656 36.164062 -16.996094 L 37.585938 -20.066406 C 37.8125 -20.367188 37.886719 -20.742188 37.8125 -21.039062 C 37.8125 -21.414062 37.511719 -21.863281 37.0625 -21.863281 C 36.015625 -21.863281 34.066406 -18.195312 32.71875 -15.425781 C 32.195312 -14.300781 31.671875 -13.179688 31.222656 -12.429688 C 28.75 -8.011719 24.484375 -4.191406 22.011719 -3.742188 C 21.9375 -3.820312 21.9375 -3.96875 21.863281 -4.117188 C 21.9375 -5.015625 22.539062 -6.8125 23.4375 -8.761719 C 23.4375 -8.835938 23.359375 -8.984375 23.359375 -9.132812 L 25.683594 -15.347656 L 25.683594 -15.425781 L 25.980469 -16.621094 L 26.953125 -19.46875 C 27.253906 -20.214844 27.554688 -21.039062 27.777344 -22.011719 C 27.328125 -22.761719 27.03125 -23.285156 26.65625 -23.660156 C 26.804688 -24.335938 26.804688 -24.859375 26.730469 -25.382812 C 26.582031 -27.777344 24.707031 -30.847656 22.613281 -30.847656 C 20.140625 -30.847656 15.425781 -25.90625 13.027344 -23.359375 L 12.355469 -22.613281 L 12.652344 -23.660156 C 12.652344 -24.859375 12.28125 -25.757812 11.980469 -26.429688 C 11.753906 -27.03125 11.53125 -27.628906 11.457031 -28.152344 C 11.457031 -28.378906 11.382812 -28.675781 11.304688 -29.050781 L 11.230469 -29.425781 C 10.109375 -30.773438 7.335938 -32.496094 5.839844 -32.496094 C 5.242188 -32.496094 5.089844 -32.121094 5.089844 -31.523438 C 5.242188 -30.023438 4.566406 -28.003906 3.667969 -25.832031 Z M 2.097656 -21.265625 "/></g></g></g><g fill="rgb(0%, 29.019165%, 67.83905%)" fill-opacity="1"><g transform="translate(248.929667, 263.273155)"><g><path d="M 16.324219 -30.847656 C 16.023438 -30.847656 15.648438 -30.847656 15.273438 -30.699219 C 15.199219 -30.773438 15.125 -30.773438 14.976562 -30.773438 C 14.675781 -30.773438 14.226562 -30.546875 13.851562 -30.398438 C 13.476562 -30.175781 13.179688 -30.023438 12.953125 -30.023438 L 12.429688 -30.023438 C 12.203125 -30.023438 11.980469 -30.097656 11.753906 -30.097656 C 11.230469 -30.097656 10.558594 -29.949219 9.882812 -29.351562 L 9.507812 -29.050781 L 9.507812 -29.125 C 9.285156 -29.050781 9.132812 -28.902344 8.910156 -28.675781 C 8.011719 -27.929688 7.113281 -26.953125 6.289062 -25.980469 L 5.316406 -24.933594 C 4.566406 -24.410156 3.445312 -22.460938 2.695312 -21.265625 L 2.394531 -20.816406 L 1.871094 -19.390625 C 1.125 -17.894531 0.449219 -16.324219 0.0742188 -14.675781 C 0.0742188 -14.527344 0 -14.300781 0 -14.152344 C -0.0742188 -14.078125 -0.0742188 -13.925781 -0.0742188 -13.851562 C -0.300781 -12.28125 -0.523438 -10.632812 -0.523438 -9.058594 C -0.449219 -8.984375 -0.523438 -7.9375 -0.523438 -6.8125 C -0.597656 -5.691406 -0.597656 -4.566406 -0.597656 -4.566406 C -0.597656 -3.96875 -0.300781 -3.292969 0.0742188 -2.695312 L 0 -2.695312 C 0.523438 0.597656 2.320312 2.023438 3.667969 2.546875 L 3.742188 2.621094 C 5.464844 3.742188 8.160156 4.117188 10.183594 4.117188 C 12.503906 4.117188 13.925781 3.070312 15.875 1.796875 L 18.195312 0.226562 C 19.542969 -0.675781 21.113281 -2.394531 22.164062 -3.667969 L 22.3125 -3.820312 C 22.988281 -5.015625 24.410156 -6.289062 25.308594 -7.488281 L 26.804688 -9.433594 L 27.03125 -10.109375 C 27.105469 -10.257812 27.179688 -10.332031 27.179688 -10.484375 L 27.554688 -11.082031 C 28.453125 -12.203125 29.351562 -13.550781 29.726562 -14.375 C 30.773438 -15.722656 31.523438 -16.695312 31.449219 -17.519531 C 31.371094 -17.894531 31.371094 -18.042969 31.222656 -18.042969 C 31.222656 -18.042969 31.148438 -17.96875 31 -17.894531 L 31 -17.96875 L 30.625 -17.820312 C 30.472656 -17.820312 30.175781 -17.746094 29.949219 -17.59375 C 29.277344 -17.371094 27.777344 -14.824219 26.355469 -12.503906 C 25.605469 -11.230469 24.410156 -10.03125 23.886719 -9.285156 C 23.660156 -8.910156 23.285156 -8.386719 23.0625 -7.9375 C 18.792969 -2.546875 13.179688 0.597656 11.007812 0.597656 C 9.734375 0.597656 8.3125 0.0742188 8.234375 -0.75 C 8.160156 -1.648438 8.011719 -3.070312 8.011719 -4.492188 C 8.011719 -6.289062 8.160156 -8.085938 8.835938 -8.910156 L 10.707031 -9.808594 C 11.53125 -10.183594 14.601562 -12.652344 15.574219 -13.703125 C 16.921875 -14.75 18.195312 -16.023438 19.167969 -17.371094 L 19.542969 -17.671875 C 20.589844 -18.867188 22.164062 -21.640625 22.3125 -22.3125 C 22.835938 -23.4375 23.0625 -24.558594 23.0625 -25.605469 C 22.386719 -30.699219 17.144531 -30.847656 16.324219 -30.847656 Z M 15.648438 -21.640625 C 16.773438 -23.136719 18.195312 -24.632812 18.792969 -24.785156 C 19.09375 -24.632812 19.316406 -24.335938 19.542969 -24.183594 C 19.390625 -21.488281 17.070312 -18.042969 14.078125 -15.125 L 12.429688 -13.777344 C 11.90625 -13.328125 11.304688 -12.804688 10.707031 -12.503906 C 11.15625 -14 12.730469 -17.222656 14.75 -20.289062 C 14.75 -20.367188 14.898438 -20.515625 14.898438 -20.589844 C 14.976562 -20.890625 15.199219 -21.191406 15.273438 -21.339844 Z M 15.648438 -21.640625 "/></g></g></g><g fill="rgb(0%, 29.019165%, 67.83905%)" fill-opacity="1"><g transform="translate(275.358465, 263.273155)"><g><path d="M 5.316406 -1.648438 C 7.863281 -1.945312 8.460938 -3.59375 9.132812 -5.464844 L 9.808594 -7.1875 C 9.734375 -7.335938 9.734375 -7.488281 9.734375 -7.710938 L 9.734375 -8.085938 L 11.53125 -13.777344 L 13.851562 -19.242188 L 13.851562 -19.167969 C 16.097656 -22.386719 19.09375 -25.980469 20.289062 -26.730469 C 20.140625 -26.355469 19.839844 -25.605469 19.316406 -24.558594 L 18.570312 -22.910156 L 18.792969 -22.011719 C 18.71875 -21.714844 18.417969 -21.265625 18.417969 -21.039062 C 17.96875 -19.992188 17.371094 -18.570312 17.371094 -17.96875 L 17.371094 -17.820312 L 17.519531 -17.519531 C 16.621094 -14.675781 15.875 -11.605469 16.097656 -9.433594 C 16.324219 -6.4375 18.570312 -4.042969 19.390625 -4.042969 C 19.691406 -4.042969 19.617188 -4.191406 19.691406 -4.191406 C 21.039062 -3.519531 22.6875 -3.21875 23.660156 -3.144531 C 24.632812 -4.640625 24.933594 -5.988281 25.757812 -7.039062 C 25.605469 -7.414062 25.980469 -10.632812 26.28125 -12.878906 C 26.429688 -14.152344 26.503906 -15.273438 26.503906 -15.347656 C 26.503906 -15.796875 26.207031 -16.324219 25.980469 -16.921875 C 25.832031 -17.222656 25.683594 -17.519531 25.605469 -17.894531 C 28.003906 -21.9375 32.046875 -25.90625 33.84375 -26.730469 C 33.769531 -26.429688 33.46875 -26.054688 33.246094 -25.605469 C 32.195312 -23.359375 30.25 -19.390625 30.472656 -16.621094 C 29.574219 -13.925781 28.75 -10.40625 28.828125 -8.535156 C 28.902344 -8.085938 29.050781 -7.5625 29.351562 -7.113281 C 29.875 -3.820312 31.523438 -1.496094 33.542969 -1.125 L 33.695312 -1.125 C 34.066406 -1.046875 34.367188 -0.972656 34.742188 -0.972656 C 39.308594 -0.972656 42.304688 -5.242188 45 -9.132812 L 45.972656 -10.484375 C 48.070312 -13.476562 50.089844 -16.773438 51.363281 -19.316406 L 51.363281 -19.242188 L 52.261719 -20.742188 C 52.488281 -21.113281 52.5625 -21.5625 52.488281 -21.863281 C 52.488281 -22.386719 52.1875 -22.6875 51.664062 -22.6875 C 50.613281 -22.6875 48.667969 -19.390625 47.019531 -16.546875 C 45.375 -13.179688 39.085938 -5.089844 36.3125 -4.042969 C 36.238281 -4.117188 36.164062 -4.269531 36.164062 -4.34375 C 36.164062 -4.941406 36.539062 -5.988281 37.136719 -7.414062 C 37.136719 -7.5625 37.0625 -7.9375 37.0625 -8.160156 C 37.585938 -10.257812 38.035156 -12.503906 38.410156 -14.675781 L 38.335938 -14.675781 L 40.058594 -18.34375 C 40.058594 -18.71875 40.058594 -19.019531 39.90625 -19.46875 C 40.355469 -20.890625 40.730469 -22.238281 40.882812 -23.585938 C 40.804688 -24.109375 40.582031 -24.558594 40.28125 -25.007812 C 40.28125 -25.53125 40.355469 -26.429688 40.355469 -26.804688 C 40.058594 -29.351562 38.261719 -31.671875 36.464844 -31.671875 C 35.042969 -31.671875 32.121094 -28.675781 29.949219 -26.429688 L 29.5 -26.054688 L 29.574219 -26.054688 L 27.929688 -24.632812 L 26.503906 -23.210938 C 26.65625 -23.886719 26.730469 -24.484375 26.730469 -25.15625 C 26.429688 -27.777344 24.707031 -31.449219 22.539062 -31.449219 C 20.816406 -31.371094 15.722656 -25.90625 13.476562 -22.988281 L 12.355469 -21.714844 C 12.355469 -22.089844 12.429688 -22.238281 12.578125 -22.835938 C 12.804688 -24.035156 13.101562 -25.53125 12.953125 -27.03125 C 12.578125 -31.371094 9.882812 -33.542969 8.535156 -33.542969 C 8.085938 -33.542969 6.8125 -32.421875 5.539062 -31 C 4.792969 -30.546875 3.894531 -26.132812 3.292969 -22.761719 L 2.769531 -19.917969 L 1.273438 -16.023438 L 1.722656 -14.152344 C 1.199219 -12.578125 0.597656 -10.707031 0.675781 -9.285156 C 0.675781 -9.210938 0.675781 -9.058594 0.824219 -8.984375 C 0.824219 -8.835938 0.75 -8.609375 0.75 -8.460938 C 0.597656 -7.785156 0.449219 -7.261719 0.523438 -6.589844 C 0.898438 -2.769531 3.519531 -0.148438 3.96875 -0.148438 Z M 5.316406 -1.648438 "/></g></g></g><g fill="rgb(0%, 29.019165%, 67.83905%)" fill-opacity="1"><g transform="translate(320.205067, 263.273155)"><g><path d="M 6.589844 -5.167969 L 6.515625 -5.242188 C 6.515625 -5.464844 6.738281 -6.214844 6.886719 -6.738281 L 6.886719 -6.664062 L 6.964844 -7.113281 C 7.488281 -8.460938 7.863281 -9.285156 8.386719 -10.40625 L 9.058594 -11.832031 C 9.507812 -13.027344 9.957031 -14.078125 10.707031 -15.273438 C 11.082031 -16.921875 12.730469 -18.34375 14.078125 -19.542969 L 15.425781 -20.816406 C 17.070312 -22.613281 20.589844 -23.210938 22.238281 -23.210938 C 22.386719 -23.210938 22.613281 -23.210938 22.761719 -23.136719 C 23.4375 -23.285156 23.734375 -23.808594 23.660156 -24.558594 C 23.511719 -25.980469 19.691406 -28.675781 17.671875 -29.199219 L 17.296875 -29.199219 C 15.648438 -29.199219 12.203125 -28.152344 10.257812 -26.804688 L 10.332031 -26.804688 L 9.210938 -26.28125 C 6.589844 -24.484375 4.492188 -21.863281 2.621094 -19.390625 L 1.945312 -17.894531 C -0.375 -14.078125 -2.171875 -9.359375 -1.945312 -5.988281 C -1.421875 -0.523438 3.445312 1.496094 7.113281 1.496094 C 7.785156 1.496094 8.683594 0.824219 9.660156 0.0742188 L 9.957031 -0.148438 C 10.855469 -0.226562 11.832031 -1.574219 12.652344 -2.84375 C 12.878906 -3.21875 13.027344 -3.59375 13.402344 -3.96875 L 14.824219 -6.8125 L 14.824219 -6.738281 L 15.875 -8.3125 C 15.875 -8.160156 15.875 -8.386719 15.796875 -7.9375 C 15.796875 -7.863281 15.722656 -7.785156 15.722656 -7.710938 L 15.796875 -7.113281 C 15.875 -6.589844 15.875 -6.214844 15.875 -5.839844 C 15.875 -5.464844 15.875 -4.941406 15.949219 -4.566406 C 15.949219 -3.894531 16.097656 -3.070312 16.324219 -2.472656 C 16.847656 -0.597656 19.316406 2.394531 21.640625 2.394531 C 22.238281 2.394531 22.761719 2.171875 23.359375 1.945312 L 23.960938 1.722656 C 25.382812 1.648438 28.527344 -1.347656 29.125 -2.695312 C 29.726562 -3.445312 30.921875 -5.464844 32.121094 -7.414062 C 33.246094 -9.210938 34.292969 -10.933594 34.816406 -11.605469 C 36.089844 -13.851562 37.0625 -15.199219 37.660156 -16.023438 C 38.109375 -16.695312 38.335938 -17.070312 38.335938 -17.296875 C 38.410156 -17.671875 38.410156 -17.894531 38.410156 -18.121094 C 38.335938 -18.644531 38.035156 -18.867188 37.660156 -18.867188 C 37.363281 -18.867188 36.988281 -18.71875 36.761719 -18.492188 L 34.964844 -15.648438 C 34.59375 -14.898438 33.84375 -13.925781 33.542969 -13.253906 C 33.019531 -12.054688 32.347656 -11.230469 31.972656 -10.632812 L 29.726562 -6.664062 C 28.300781 -4.34375 25.53125 -0.824219 23.734375 -0.824219 C 23.359375 -0.824219 22.613281 -0.898438 22.613281 -1.125 C 22.539062 -1.421875 22.835938 -2.097656 23.285156 -2.996094 L 24.183594 -5.691406 C 24.335938 -6.363281 24.558594 -6.964844 24.785156 -7.5625 C 25.15625 -8.460938 25.457031 -9.359375 25.53125 -10.558594 C 25.53125 -12.203125 25.832031 -12.953125 26.054688 -13.402344 C 26.132812 -13.628906 26.207031 -13.925781 26.207031 -14.152344 C 26.207031 -14.300781 26.429688 -15.050781 26.730469 -15.796875 C 27.105469 -16.773438 27.554688 -17.894531 27.480469 -18.121094 C 27.402344 -18.71875 27.03125 -18.941406 26.65625 -19.242188 L 26.730469 -19.242188 L 26.582031 -19.316406 L 26.582031 -19.390625 C 26.582031 -19.46875 26.582031 -19.542969 26.503906 -19.691406 C 25.382812 -20.742188 24.257812 -20.742188 22.835938 -20.742188 C 22.011719 -20.742188 19.316406 -20.589844 19.316406 -19.617188 C 19.09375 -19.019531 18.867188 -18.570312 18.71875 -18.417969 C 18.492188 -18.121094 18.195312 -17.746094 17.894531 -16.847656 C 17.671875 -16.023438 17.445312 -15.199219 17.144531 -14.601562 C 16.398438 -13.476562 15.648438 -11.90625 14.824219 -10.183594 C 13.703125 -7.9375 12.429688 -5.316406 11.230469 -3.667969 C 10.332031 -2.695312 9.507812 -1.796875 8.085938 -1.796875 L 7.863281 -1.796875 C 7.414062 -1.796875 7.113281 -2.171875 7.039062 -2.921875 C 7.039062 -3.144531 6.964844 -3.292969 6.886719 -3.445312 C 6.8125 -3.742188 6.738281 -4.117188 6.738281 -4.417969 Z M 6.589844 -5.167969 "/></g></g></g></svg>