<svg xmlns="http://www.w3.org/2000/svg" xmlns:xlink="http://www.w3.org/1999/xlink" width="250" zoomAndPan="magnify" viewBox="0 0 187.5 89.999999" height="120" preserveAspectRatio="xMidYMid meet" version="1.0"><defs><clipPath id="id1"><path d="M 5 0.121094 L 182.472656 0.121094 L 182.472656 89.878906 L 5 89.878906 Z M 5 0.121094 " clip-rule="nonzero"/></clipPath></defs><g clip-path="url(#id1)"><path fill="rgb(32.939148%, 32.939148%, 32.939148%)" d="M 180.207031 50.1875 C 177.589844 48.167969 174.933594 46.289062 172.246094 44.480469 L 178.753906 40.691406 C 181.410156 39.132812 182.328125 35.695312 180.773438 33.035156 C 179.214844 30.378906 175.785156 29.457031 173.132812 31.015625 L 161.5625 37.75 C 158.628906 36.046875 155.691406 34.488281 152.757812 33.035156 L 160.078125 24.285156 C 162.058594 21.910156 161.742188 18.402344 159.371094 16.382812 C 157 14.398438 153.5 14.71875 151.484375 17.058594 L 142.074219 28.289062 C 137.121094 26.304688 132.097656 24.675781 127.078125 23.328125 L 130.71875 13.335938 C 131.78125 10.429688 130.296875 7.207031 127.394531 6.179688 C 124.492188 5.117188 121.273438 6.605469 120.25 9.507812 L 116.109375 20.917969 C 110.910156 20.03125 105.710938 19.464844 100.441406 19.253906 L 100.441406 5.71875 C 100.441406 2.636719 97.929688 0.121094 94.851562 0.121094 C 91.773438 0.121094 89.261719 2.636719 89.261719 5.71875 L 89.261719 19.289062 C 83.851562 19.535156 78.617188 20.140625 73.628906 20.988281 L 69.453125 9.472656 C 68.394531 6.570312 65.175781 5.082031 62.308594 6.144531 C 59.410156 7.207031 57.921875 10.394531 58.984375 13.300781 L 62.628906 23.363281 C 57.285156 24.746094 52.226562 26.410156 47.558594 28.21875 L 38.183594 17.019531 C 36.203125 14.648438 32.667969 14.328125 30.296875 16.347656 C 27.925781 18.332031 27.609375 21.875 29.625 24.25 L 36.839844 32.894531 C 33.054688 34.703125 29.625 36.582031 26.582031 38.351562 L 13.957031 30.980469 C 11.300781 29.421875 7.871094 30.34375 6.316406 33 C 4.757812 35.660156 5.679688 39.097656 8.332031 40.65625 L 16.007812 45.15625 C 11.902344 48.0625 9.535156 50.117188 9.179688 50.433594 C 7.941406 51.53125 7.234375 53.164062 7.304688 54.828125 C 7.375 56.492188 8.152344 58.054688 9.5 59.082031 C 36.382812 79.667969 64.960938 90.121094 94.425781 90.121094 C 144.550781 90.121094 179.039062 60.109375 180.488281 58.832031 C 181.726562 57.734375 182.433594 56.105469 182.363281 54.4375 C 182.328125 52.773438 181.550781 51.214844 180.207031 50.1875 Z M 94.851562 77.363281 C 82.578125 77.363281 72.601562 67.371094 72.601562 55.078125 C 72.601562 42.78125 82.578125 32.789062 94.851562 32.789062 C 107.125 32.789062 117.101562 42.78125 117.101562 55.078125 C 117.101562 67.371094 107.125 77.363281 94.851562 77.363281 Z M 69.488281 33.320312 C 64.46875 39.167969 61.425781 46.785156 61.425781 55.078125 C 61.425781 62.941406 64.183594 70.171875 68.710938 75.910156 C 52.828125 72.191406 37.265625 65.070312 22.195312 54.507812 C 30.4375 48.664062 47.277344 38.351562 69.488281 33.320312 Z M 121.132812 75.734375 C 125.589844 70.027344 128.3125 62.871094 128.3125 55.078125 C 128.3125 46.679688 125.203125 39.023438 120.074219 33.144531 C 136.273438 36.792969 152.121094 43.984375 167.507812 54.757812 C 159.335938 60.496094 142.816406 70.597656 121.132812 75.734375 Z M 121.132812 75.734375 " fill-opacity="1" fill-rule="nonzero"/></g></svg>